<svg width="226" height="110" viewBox="0 0 226 110" fill="none" xmlns="http://www.w3.org/2000/svg">
<path d="M171.231 54.687L135.064 75.572C126.555 80.487 123.633 91.374 128.548 99.894C133.463 108.414 144.339 111.325 152.859 106.41L215.351 70.31L171.231 54.682V54.687Z" fill="#FFBB01" stroke="#202124" stroke-width="1.5" stroke-miterlimit="10"/>
<path d="M143.98 1C140.852 0.998139 137.779 1.82101 135.07 3.38566C132.362 4.95031 130.114 7.20142 128.553 9.91201C123.638 18.432 126.549 29.319 135.068 34.233L197.561 70.333C206.081 75.248 216.957 72.337 221.872 63.817C226.786 55.298 223.876 44.41 215.356 39.495L152.863 3.395C150.165 1.82776 147.1 1.00153 143.98 1Z" fill="#38A852" stroke="#202124" stroke-width="1.5" stroke-miterlimit="10"/>
<path d="M81.8061 1C78.7831 1 75.7271 1.772 72.9221 3.396L10.4301 39.495L53.9911 55.454L90.7171 34.233C99.2261 29.319 102.148 18.431 97.2331 9.911C93.9411 4.201 87.9571 1 81.8061 1Z" fill="#FF5145" stroke="#202124" stroke-width="1.5" stroke-miterlimit="10"/>
<path d="M19.347 37.094C13.201 37.094 7.21703 40.279 3.92003 46.006C-0.994974 54.525 1.91603 65.413 10.436 70.327L72.928 106.427C81.436 111.342 92.324 108.431 97.239 99.911C102.154 91.392 99.243 80.504 90.723 75.589L28.219 39.49C25.5258 37.9202 22.4643 37.0934 19.347 37.094Z" fill="#428EFF" stroke="#202124" stroke-width="1.5" stroke-miterlimit="10"/>
</svg>
