<svg width="646" height="120" viewBox="0 0 646 120" fill="none" xmlns="http://www.w3.org/2000/svg">
<path d="M14.688 34.8805C16.8604 35.0809 18.1417 35.3422 20.0063 36.5018C23.0627 38.4129 26.2444 40.1416 29.3509 41.9668C29.4559 42.0289 29.5597 42.0289 29.6623 41.9668C33.9594 39.4449 38.2685 36.9456 42.5895 34.4689C44.8764 33.159 46.3295 32.0746 47.0632 29.7197C49.0352 23.4207 42.2173 18.6357 36.6914 21.8424C29.4786 26.0298 22.1203 30.2684 14.6164 34.5584C14.5848 34.5763 14.5598 34.6039 14.5452 34.637C14.5305 34.6702 14.5269 34.7073 14.5349 34.743C14.5428 34.7787 14.5619 34.8113 14.5894 34.836C14.6169 34.8607 14.6514 34.8762 14.688 34.8805Z" stroke="#933C36" stroke-width="0.715789"/>
<path d="M12.8482 49.1565C20.7828 53.6696 28.6457 58.3007 36.5588 62.8531C41.0002 65.4121 46.043 63.5224 47.224 58.5334C48.1045 54.822 46.1038 52.2523 43.0009 50.4628C35.0127 45.8531 26.7775 41.4582 18.9396 36.6266C11.5777 32.0849 3.99751 41.6371 10.3466 47.4601C10.8691 47.9373 11.703 48.5028 12.8482 49.1565Z" stroke="#355B93" stroke-width="0.715789"/>
<path d="M62.5349 33.8531C70.4229 38.4986 78.3717 43.0904 86.3528 47.5712C88.0468 48.5208 89.3412 49.072 90.2359 49.2247C94.9065 50.0192 99.0044 45.5169 98.0595 40.9752C97.3867 37.7398 95.1749 36.6482 91.9538 34.7729C84.8126 30.6141 77.6595 26.4793 70.4945 22.3682C69.0247 21.526 67.9677 21.0226 67.3235 20.8579C64.5892 20.1636 61.5399 21.5272 59.9795 23.7962C57.5279 27.3752 58.8307 31.6699 62.5349 33.8531Z" stroke="#30683D" stroke-width="0.715789"/>
<path d="M85.4506 47.8683C85.2716 47.8933 77.7487 43.3302 76.8253 42.8255C76.7204 42.7683 76.6178 42.7694 76.5175 42.8291C69.362 46.8972 64.614 49.6482 62.2733 51.0821C58.562 53.3584 57.6672 57.807 60.262 61.2607C61.8868 63.4188 65.6948 65.0186 68.5365 63.3937C76.2813 58.9678 84.0214 54.5108 91.7567 50.0228C91.772 50.0126 91.7837 49.9978 91.79 49.9806C91.7962 49.9633 91.7968 49.9445 91.7916 49.9269C91.7864 49.9092 91.7757 49.8938 91.761 49.8827C91.7464 49.8716 91.7285 49.8655 91.7102 49.8653C89.4888 49.9703 87.5121 49.3344 85.7799 47.9577C85.6844 47.879 85.5747 47.8492 85.4506 47.8683Z" stroke="#937114" stroke-width="0.715789"/>
<path d="M30.4928 42.6001C34.6181 45.0194 38.7769 47.4269 42.969 49.8224C44.5438 50.7243 45.6186 51.5152 46.1936 52.1952C49.5829 56.218 47.8435 62.3559 42.9976 64.1632C40.1989 65.2083 38.1518 64.4281 35.4675 62.8855C27.8897 58.5288 20.3155 54.1601 12.7448 49.7794C10.8766 48.6986 9.63112 47.7716 9.00838 46.9986C6.87891 44.3538 6.99701 40.1127 9.20522 37.5502C9.83035 36.8225 11.1235 35.8943 13.0848 34.7657C21.1112 30.137 29.1352 25.5082 37.1568 20.8794C37.8106 20.5024 38.6146 20.265 39.569 20.1672C46.2473 19.4944 50.6423 27.4575 46.1328 32.5611C45.491 33.2865 44.051 34.2969 41.813 35.5925C38.0527 37.7685 34.2793 39.9695 30.4928 42.1956C30.4575 42.2169 30.4283 42.2468 30.408 42.2826C30.3876 42.3184 30.377 42.3587 30.377 42.3996C30.377 42.4405 30.3876 42.4805 30.408 42.5157C30.4283 42.5508 30.4575 42.5799 30.4928 42.6001ZM14.6882 34.8803C16.8606 35.0807 18.1419 35.342 20.0065 36.5015C23.0629 38.4127 26.2446 40.1413 29.3511 41.9666C29.4561 42.0286 29.5599 42.0286 29.6625 41.9666C33.9596 39.4446 38.2687 36.9453 42.5896 34.4687C44.8766 33.1588 46.3296 32.0744 47.0633 29.7194C49.0353 23.4205 42.2174 18.6354 36.6915 21.8422C29.4788 26.0295 22.1205 30.2682 14.6166 34.5582C14.5849 34.5761 14.56 34.6036 14.5454 34.6368C14.5307 34.6699 14.5271 34.707 14.5351 34.7428C14.543 34.7785 14.5621 34.811 14.5896 34.8357C14.6171 34.8604 14.6516 34.876 14.6882 34.8803ZM12.8486 49.1567C20.7831 53.6698 28.6461 58.3009 36.5591 62.8533C41.0006 65.4123 46.0433 63.5226 47.2244 58.5335C48.1048 54.8222 46.1042 52.2525 43.0012 50.463C35.013 45.8533 26.7779 41.4584 18.94 36.6268C11.5781 32.0851 3.99785 41.6373 10.3469 47.4603C10.8694 47.9375 11.7033 48.5029 12.8486 49.1567Z" fill="white"/>
<path d="M75.6485 42.1168C71.5327 39.7427 67.3847 37.3424 63.2045 34.9159C60.1087 33.1157 58.0365 31.1294 58.1761 27.5612C58.3336 23.4812 61.5439 20.2744 65.5738 20.1778C67.8249 20.1241 69.21 21.0296 71.114 22.1212C83.2824 29.1025 91.2444 33.6943 94.9999 35.8965C99.0011 38.2408 99.8744 43.6271 96.9719 47.1631C96.3897 47.8693 95.3995 48.6245 94.0013 49.4285C85.8461 54.1265 77.6957 58.8364 69.55 63.5582C65.9997 65.6197 61.755 64.5997 59.4394 61.1067C57.0344 57.4812 58.2011 52.7319 61.9304 50.5667C66.4065 47.9659 70.9792 45.3163 75.6485 42.6178C75.6923 42.5923 75.7287 42.5557 75.754 42.5118C75.7792 42.4678 75.7925 42.418 75.7925 42.3673C75.7925 42.3166 75.7792 42.2668 75.754 42.2228C75.7287 42.1788 75.6923 42.1423 75.6485 42.1168ZM62.5352 33.853C70.4232 38.4984 78.3721 43.0902 86.3531 47.5711C88.0472 48.5207 89.3415 49.0718 90.2363 49.2245C94.9068 50.0191 99.0047 45.5168 98.0599 40.9751C97.387 37.7397 95.1752 36.6481 91.9542 34.7728C84.813 30.614 77.6599 26.4791 70.4948 22.3681C69.0251 21.5259 67.9681 21.0224 67.3239 20.8578C64.5896 20.1635 61.5403 21.5271 59.9799 23.7961C57.5283 27.3751 58.831 31.6698 62.5352 33.853ZM85.4512 47.8681C85.2723 47.8932 77.7493 43.33 76.826 42.8254C76.721 42.7681 76.6184 42.7693 76.5182 42.829C69.3627 46.897 64.6146 49.6481 62.274 51.082C58.5626 53.3582 57.6679 57.8069 60.2626 61.2605C61.8874 63.4187 65.6954 65.0184 68.5371 63.3936C76.282 58.9676 84.022 54.5107 91.7573 50.0227C91.7727 50.0125 91.7843 49.9977 91.7906 49.9804C91.7969 49.9632 91.7974 49.9443 91.7922 49.9267C91.787 49.9091 91.7763 49.8936 91.7617 49.8825C91.747 49.8715 91.7292 49.8654 91.7108 49.8652C89.4895 49.9702 87.5127 49.3343 85.7805 47.9576C85.6851 47.8789 85.5753 47.849 85.4512 47.8681Z" fill="white"/>
<path d="M138.054 45.4527H129.289C129.051 45.4527 128.932 45.3334 128.932 45.0948V41.0685C128.932 40.8896 129.021 40.8001 129.2 40.8001H143.419C143.494 40.8004 143.566 40.8277 143.622 40.8771C143.678 40.9265 143.714 40.9945 143.723 41.0685C146.164 58.9561 122.955 64.0203 115.213 49.998C109.537 39.7085 116.301 27.3683 127.919 26.5452C132.819 26.1992 136.982 27.7107 140.406 31.0797C140.496 31.168 140.495 31.2562 140.402 31.3445L136.723 34.9092C136.613 35.0165 136.506 35.0165 136.401 34.9092C130.685 29.1793 121.298 31.8205 119.261 39.458C117.021 47.8542 124.769 54.7687 132.843 51.9593C135.783 50.9381 137.579 48.8432 138.233 45.6746C138.264 45.5267 138.205 45.4527 138.054 45.4527Z" fill="white"/>
<path d="M510.83 45.6851C510.836 45.657 510.836 45.6279 510.829 45.5999C510.822 45.572 510.809 45.5459 510.791 45.5236C510.773 45.5013 510.75 45.4834 510.724 45.4711C510.698 45.4588 510.669 45.4524 510.641 45.4525H501.726C501.575 45.4525 501.5 45.3773 501.5 45.227V41.0683C501.5 40.8893 501.59 40.7999 501.768 40.7999H515.988C516.051 40.7999 516.113 40.8226 516.162 40.8639C516.21 40.9052 516.242 40.9624 516.252 41.0253C518.242 53.1544 507.176 60.91 496.167 57.034C484.951 53.0828 482.077 37.9868 491.143 30.3028C497.359 25.0382 507.187 25.099 512.946 31.0938C513.041 31.1916 513.039 31.2894 512.938 31.3872L509.291 34.9053C509.186 35.0079 509.083 35.0067 508.98 34.9018C502.012 27.8834 490.348 33.6169 491.572 43.4984C492.223 48.7487 496.074 52.3992 501.496 52.6104C505.934 52.7858 509.907 50.1194 510.83 45.6851Z" fill="white"/>
<path d="M231.014 27.2034H225.796C225.717 27.2034 225.653 27.2675 225.653 27.3465V57.1162C225.653 57.1953 225.717 57.2594 225.796 57.2594H231.014C231.093 57.2594 231.157 57.1953 231.157 57.1162V27.3465C231.157 27.2675 231.093 27.2034 231.014 27.2034Z" fill="white"/>
<path d="M271.413 27.5326C271.413 27.4833 271.423 27.4344 271.442 27.3888C271.461 27.3432 271.488 27.3018 271.523 27.2669C271.558 27.232 271.599 27.2043 271.645 27.1854C271.691 27.1666 271.74 27.1568 271.789 27.1568L282.497 27.1389C284.404 27.1356 286.293 27.5033 288.056 28.2212C289.818 28.939 291.421 29.9928 292.772 31.3225C294.122 32.6522 295.194 34.2317 295.927 35.9708C296.66 37.7099 297.039 39.5745 297.042 41.4583V42.8899C297.048 46.6942 295.525 50.3454 292.807 53.0402C290.089 55.735 286.398 57.2526 282.547 57.2594L271.839 57.2772C271.739 57.2772 271.644 57.2377 271.573 57.1672C271.503 57.0967 271.463 57.0011 271.463 56.9015L271.413 27.5326ZM277.186 32.6756V51.78C277.186 51.8094 277.198 51.8376 277.218 51.8584C277.239 51.8792 277.267 51.8909 277.297 51.8909H282.29C283.476 51.8909 284.65 51.658 285.746 51.2055C286.842 50.753 287.838 50.0897 288.677 49.2535C289.516 48.4174 290.181 47.4247 290.635 46.3322C291.089 45.2397 291.323 44.0688 291.323 42.8863V41.5693C291.323 40.3867 291.089 39.2158 290.635 38.1233C290.181 37.0308 289.516 36.0382 288.677 35.202C287.838 34.3659 286.842 33.7026 285.746 33.2501C284.65 32.7975 283.476 32.5646 282.29 32.5646H277.297C277.267 32.5646 277.239 32.5763 277.218 32.5971C277.198 32.6179 277.186 32.6461 277.186 32.6756Z" fill="white"/>
<path d="M378.105 27.2034H372.916C372.821 27.2034 372.744 27.2803 372.744 27.3752V57.0876C372.744 57.1825 372.821 57.2594 372.916 57.2594H378.105C378.2 57.2594 378.277 57.1825 378.277 57.0876V27.3752C378.277 27.2803 378.2 27.2034 378.105 27.2034Z" fill="white"/>
<path d="M169.811 44.9192C171.597 59.0847 151.948 63.0215 147.736 50.3556C147.07 48.3514 146.946 46.3042 147.363 44.2141C149.883 31.6306 168.204 32.1817 169.811 44.9192ZM158.57 52.9897C159.345 52.987 160.112 52.8171 160.827 52.4898C161.542 52.1625 162.191 51.6841 162.737 51.082C163.283 50.4799 163.715 49.7658 164.009 48.9806C164.303 48.1954 164.452 47.3543 164.449 46.5055C164.443 44.7913 163.816 43.1494 162.705 41.9412C161.594 40.7329 160.09 40.0571 158.525 40.0626C157.75 40.0653 156.983 40.2352 156.268 40.5625C155.554 40.8898 154.905 41.3682 154.359 41.9703C153.813 42.5724 153.38 43.2865 153.087 44.0717C152.793 44.8569 152.643 45.6979 152.646 46.5468C152.652 48.261 153.28 49.9028 154.391 51.1111C155.502 52.3194 157.005 52.9951 158.57 52.9897Z" fill="white"/>
<path d="M195.579 44.9192C197.365 59.0847 177.717 63.0215 173.504 50.3556C172.839 48.3514 172.715 46.3042 173.132 44.2141C175.652 31.6306 193.972 32.1817 195.579 44.9192ZM184.339 52.9897C185.114 52.987 185.881 52.8171 186.596 52.4898C187.31 52.1625 187.959 51.6841 188.505 51.082C189.051 50.4799 189.483 49.7658 189.777 48.9806C190.071 48.1954 190.221 47.3543 190.218 46.5055C190.212 44.7913 189.584 43.1494 188.473 41.9412C187.362 40.7329 185.859 40.0571 184.294 40.0626C183.519 40.0653 182.752 40.2352 182.037 40.5625C181.322 40.8898 180.673 41.3682 180.127 41.9703C179.581 42.5724 179.149 43.2865 178.855 44.0717C178.561 44.8569 178.412 45.6979 178.415 46.5468C178.421 48.261 179.048 49.9028 180.159 51.1111C181.27 52.3194 182.774 52.9951 184.339 52.9897Z" fill="white"/>
<path d="M215.188 54.3034C213.563 56.1072 211.65 57.0938 209.448 57.2632C203.628 57.7105 199.348 53.1581 198.811 47.4211C198.403 43.0762 199.724 39.6631 202.773 37.1817C206.338 34.2792 212.11 34.1754 215.056 38.0371C215.078 38.0654 215.108 38.0862 215.142 38.0965C215.176 38.1069 215.213 38.1063 215.247 38.0949C215.281 38.0835 215.31 38.0618 215.331 38.0328C215.352 38.0038 215.363 37.969 215.364 37.9333V36.0579C215.364 35.879 215.453 35.7895 215.632 35.7895H220.446C220.57 35.7895 220.632 35.8515 220.632 35.9756C220.653 41.7305 220.656 47.4795 220.639 53.2225C220.629 56.4913 220.429 58.7413 220.038 59.9724C217.117 69.1739 203.499 69.1453 199.444 60.8994C199.426 60.8611 199.415 60.8193 199.413 60.7766C199.411 60.734 199.417 60.6914 199.432 60.6514C199.448 60.6115 199.471 60.5751 199.5 60.5445C199.53 60.5138 199.566 60.4897 199.606 60.4735L204.255 58.5695C204.303 58.5501 204.356 58.5485 204.405 58.5648C204.454 58.5812 204.496 58.6146 204.523 58.659C205.852 60.8087 207.645 61.8764 209.902 61.8621C214.422 61.8299 215.7 58.2223 215.331 54.3499C215.33 54.334 215.324 54.319 215.314 54.3066C215.304 54.2942 215.29 54.285 215.275 54.2801C215.26 54.2751 215.244 54.2747 215.228 54.2788C215.213 54.283 215.199 54.2915 215.188 54.3034ZM209.677 52.2839C210.418 52.2969 211.155 52.1513 211.845 51.8555C212.535 51.5598 213.165 51.1197 213.699 50.5603C214.233 50.0009 214.66 49.3332 214.957 48.5953C215.253 47.8574 215.413 47.0638 215.427 46.2598C215.456 44.6359 214.888 43.0682 213.85 41.9016C212.812 40.7349 211.388 40.0647 209.891 40.0386C209.15 40.0257 208.413 40.1712 207.723 40.467C207.033 40.7627 206.403 41.2029 205.869 41.7623C205.335 42.3217 204.908 42.9894 204.611 43.7272C204.315 44.4651 204.155 45.2587 204.141 46.0628C204.113 47.6866 204.68 49.2543 205.718 50.421C206.756 51.5877 208.181 52.2578 209.677 52.2839Z" fill="white"/>
<path d="M240.634 48.2408C241.858 53.6521 248.723 54.6793 251.743 50.1054C251.817 49.9933 251.916 49.967 252.041 50.0267L256.146 52.013C256.169 52.0245 256.19 52.0406 256.208 52.0604C256.225 52.0802 256.238 52.1032 256.246 52.128C256.254 52.1528 256.257 52.1788 256.254 52.2046C256.252 52.2304 256.244 52.2553 256.231 52.2778C250.713 62.1665 235.839 58.6054 235.227 47.2351C234.765 38.6957 242.746 32.6974 250.802 35.965C255.344 37.8081 257.148 43.0513 256.654 47.6896C256.635 47.8686 256.535 47.958 256.353 47.958H240.86C240.825 47.9583 240.791 47.9663 240.76 47.9814C240.729 47.9966 240.701 48.0185 240.68 48.0456C240.658 48.0727 240.643 48.1043 240.635 48.1381C240.627 48.1718 240.627 48.2069 240.634 48.2408ZM240.971 43.4808C240.792 43.841 240.904 44.0212 241.307 44.0212H251.16C251.204 44.0213 251.246 44.0112 251.285 43.9918C251.324 43.9725 251.358 43.9443 251.384 43.9095C251.41 43.8748 251.428 43.8344 251.435 43.7917C251.443 43.7489 251.441 43.705 251.429 43.6633C250.806 41.5446 249.295 40.1488 247.066 39.8446C244.394 39.4795 242.362 40.6916 240.971 43.4808Z" fill="white"/>
<path d="M305.063 48.2227C306.101 53.8453 313.137 54.4251 316.208 50.1267C316.289 50.017 316.39 49.9919 316.512 50.0516L320.513 51.9878C320.639 52.0474 320.669 52.1393 320.602 52.2634C315.531 61.744 301.058 58.9453 299.737 48.2156C298.928 41.6661 303.245 35.4459 310.048 35.1166C317.621 34.748 321.755 40.4994 321.082 47.6787C321.075 47.7553 321.04 47.8263 320.983 47.878C320.927 47.9297 320.854 47.9582 320.778 47.9579H305.285C305.251 47.9579 305.218 47.9652 305.188 47.9792C305.158 47.9932 305.131 48.0136 305.11 48.0389C305.089 48.0642 305.074 48.0939 305.066 48.1256C305.057 48.1574 305.056 48.1906 305.063 48.2227ZM305.403 43.5343C305.255 43.8588 305.359 44.0211 305.714 44.0211H315.578C315.627 44.0209 315.675 44.009 315.718 43.9865C315.762 43.964 315.799 43.9314 315.827 43.8915C315.856 43.8517 315.874 43.8056 315.881 43.7572C315.888 43.7087 315.883 43.6593 315.868 43.6131C313.964 38.2303 307.657 38.6276 305.403 43.5343Z" fill="white"/>
<path d="M352.648 48.1365C353.64 53.8056 360.722 54.482 363.807 50.1229C363.884 50.0131 363.983 49.988 364.104 50.0477L368.116 52.0054C368.245 52.0674 368.275 52.1617 368.206 52.2881C365.189 57.9285 358.135 59.557 352.706 56.4755C342.226 50.5273 347.691 33.1908 360.318 35.2201C366.499 36.2151 369.269 41.8948 368.668 47.6892C368.649 47.8681 368.55 47.9576 368.371 47.9576H352.799C352.776 47.9578 352.754 47.9629 352.733 47.9724C352.713 47.982 352.695 47.9958 352.681 48.0128C352.666 48.0299 352.656 48.0498 352.65 48.0712C352.645 48.0926 352.644 48.1149 352.648 48.1365ZM352.96 43.602C352.831 43.8812 352.92 44.0207 353.228 44.0207H363.178C363.226 44.0208 363.274 44.0091 363.317 43.9866C363.36 43.9642 363.397 43.9317 363.425 43.8918C363.453 43.8518 363.471 43.8057 363.478 43.7571C363.485 43.7086 363.48 43.6591 363.464 43.6127C361.535 38.1477 355.232 38.681 352.96 43.602Z" fill="white"/>
<path d="M404.894 47.9507C404.226 53.207 401.434 56.4519 396.519 57.6854C394.185 58.27 391.902 58.1543 389.669 57.3383C380.074 53.8309 379.744 39.533 389.243 35.9004C397.632 32.6936 406.046 38.8745 404.894 47.9507ZM393.696 52.9898C394.471 52.9885 395.239 52.82 395.955 52.4939C396.671 52.1678 397.321 51.6906 397.868 51.0894C398.415 50.4883 398.849 49.775 399.145 48.9902C399.44 48.2055 399.591 47.3648 399.59 46.516C399.588 45.6672 399.434 44.8269 399.136 44.0432C398.838 43.2596 398.402 42.5478 397.852 41.9485C397.303 41.3493 396.651 40.8743 395.934 40.5508C395.217 40.2272 394.449 40.0613 393.673 40.0627C392.898 40.064 392.13 40.2326 391.414 40.5586C390.698 40.8847 390.048 41.362 389.501 41.9631C388.953 42.5643 388.52 43.2776 388.224 44.0623C387.929 44.847 387.778 45.6878 387.779 46.5366C387.781 47.3854 387.935 48.2256 388.233 49.0093C388.531 49.793 388.967 50.5048 389.517 51.104C390.066 51.7032 390.718 52.1782 391.435 52.5018C392.152 52.8254 392.92 52.9912 393.696 52.9898Z" fill="white"/>
<path d="M414.149 38.3837C415.727 36.2865 417.835 35.1412 420.498 35.0911C432.427 34.8585 434.589 52.8642 424.564 57.1911C420.978 58.7408 416.486 58.093 414.174 54.7503C414.158 54.725 414.134 54.7059 414.106 54.6961C414.077 54.6863 414.047 54.6864 414.018 54.6964C413.99 54.7063 413.966 54.7256 413.95 54.751C413.934 54.7764 413.927 54.8064 413.931 54.8362C414.224 58.4867 414.329 62.1432 414.246 65.8056C414.243 65.9139 414.198 66.0167 414.12 66.0923C414.043 66.1678 413.939 66.2101 413.831 66.21H408.985C408.806 66.21 408.716 66.1206 408.716 65.9416V36.0145C408.716 35.8642 408.79 35.789 408.938 35.789H413.637C413.816 35.789 413.906 35.8785 413.906 36.0574V38.3014C413.906 38.3297 413.915 38.3571 413.932 38.38C413.948 38.4029 413.971 38.42 413.998 38.4291C414.025 38.4381 414.054 38.4386 414.081 38.4305C414.108 38.4224 414.132 38.406 414.149 38.3837ZM419.671 52.95C421.21 52.95 422.686 52.2725 423.774 51.0663C424.862 49.8602 425.473 48.2244 425.473 46.5187C425.473 44.813 424.862 43.1771 423.774 41.971C422.686 40.7649 421.21 40.0873 419.671 40.0873C418.133 40.0873 416.657 40.7649 415.569 41.971C414.481 43.1771 413.87 44.813 413.87 46.5187C413.87 48.2244 414.481 49.8602 415.569 51.0663C416.657 52.2725 418.133 52.95 419.671 52.95Z" fill="white"/>
<path d="M439.255 48.1366C440.257 53.802 447.333 54.4856 450.414 50.1265C450.493 50.0143 450.594 49.9881 450.719 50.0477L454.781 52.0305C454.926 52.102 454.956 52.2058 454.87 52.3418C452.603 55.99 449.527 57.8677 445.64 57.9751C429.299 58.4296 430.619 33.6275 446.023 35.1557C452.784 35.825 455.901 41.3258 455.289 47.682C455.282 47.7577 455.247 47.8279 455.19 47.8789C455.134 47.9299 455.061 47.958 454.985 47.9576H439.409C439.387 47.9573 439.364 47.962 439.344 47.9712C439.323 47.9805 439.305 47.9941 439.29 48.0112C439.276 48.0282 439.265 48.0483 439.259 48.07C439.253 48.0916 439.251 48.1144 439.255 48.1366ZM439.57 43.602C439.441 43.8812 439.531 44.0208 439.839 44.0208H449.788C449.837 44.0208 449.884 44.0091 449.927 43.9867C449.97 43.9642 450.007 43.9317 450.035 43.8918C450.063 43.8519 450.082 43.8057 450.088 43.7572C450.095 43.7087 450.09 43.6591 450.074 43.6128C448.145 38.1477 441.843 38.681 439.57 43.602Z" fill="white"/>
<path d="M464.88 38.5843C464.881 38.6137 464.89 38.6425 464.908 38.6662C464.925 38.69 464.95 38.7074 464.978 38.7159C465.006 38.7244 465.036 38.7235 465.063 38.7133C465.09 38.7031 465.112 38.6842 465.127 38.6595C466.956 35.8142 470.503 34.1285 473.867 35.5422C473.977 35.5876 474.032 35.6699 474.032 35.7892V40.6243C474.032 40.7723 473.961 40.8259 473.821 40.7854C473.148 40.5945 472.477 40.4263 471.809 40.2807C467.776 39.3932 465.281 42.3816 465.274 46.1431C465.265 49.7864 465.259 53.4346 465.256 57.0875C465.256 57.134 465.238 57.1786 465.205 57.2115C465.172 57.2444 465.127 57.2628 465.081 57.2628H459.895C459.776 57.2628 459.716 57.2032 459.716 57.0839L459.712 36.0576C459.712 35.9864 459.741 35.9181 459.792 35.8678C459.843 35.8174 459.912 35.7892 459.984 35.7892H464.734C464.858 35.7892 464.919 35.8512 464.916 35.9753L464.88 38.5843Z" fill="white"/>
<path d="M525.633 38.6455C527.661 35.5509 530.538 34.482 534.262 35.4388C534.431 35.4841 534.516 35.5939 534.516 35.768V40.6247C534.516 40.775 534.442 40.8323 534.294 40.7965C533.528 40.6068 532.637 40.2059 531.925 40.1523C527.219 39.7908 525.794 42.9546 525.762 46.9523C525.736 50.2831 525.735 53.6234 525.758 56.9733C525.758 57.0502 525.728 57.1239 525.674 57.1783C525.619 57.2327 525.545 57.2632 525.469 57.2632H520.379C520.26 57.2632 520.2 57.2036 520.2 57.0843L520.197 36.0579C520.197 35.9867 520.225 35.9185 520.276 35.8681C520.327 35.8178 520.397 35.7895 520.469 35.7895H525.121C525.3 35.7895 525.39 35.879 525.39 36.0579V38.5739C525.39 38.6024 525.399 38.6301 525.416 38.6528C525.434 38.6756 525.458 38.6922 525.485 38.7003C525.512 38.7083 525.541 38.7073 525.568 38.6975C525.595 38.6876 525.618 38.6694 525.633 38.6455Z" fill="white"/>
<path d="M558.151 47.9576C556.544 62.7315 533.872 60.5447 535.554 45.1588C537.179 30.3134 559.837 32.4536 558.151 47.9576ZM546.875 52.9896C547.65 52.9882 548.418 52.8197 549.134 52.4936C549.85 52.1676 550.5 51.6903 551.047 51.0892C551.594 50.488 552.028 49.7747 552.323 48.99C552.619 48.2053 552.77 47.3645 552.769 46.5157C552.767 45.6669 552.613 44.8267 552.315 44.043C552.017 43.2593 551.581 42.5475 551.031 41.9483C550.482 41.349 549.83 40.8741 549.113 40.5505C548.396 40.2269 547.628 40.0611 546.852 40.0624C546.077 40.0638 545.309 40.2323 544.593 40.5584C543.877 40.8844 543.227 41.3617 542.68 41.9628C542.132 42.564 541.699 43.2773 541.403 44.062C541.108 44.8467 540.957 45.6875 540.958 46.5363C540.96 47.3851 541.114 48.2253 541.412 49.009C541.71 49.7927 542.146 50.5045 542.696 51.1037C543.245 51.703 543.897 52.1779 544.614 52.5015C545.331 52.8251 546.099 52.9909 546.875 52.9896Z" fill="white"/>
<path d="M592.362 38.3807C595.88 33.814 602.197 34.1826 606.08 38.1266C611.431 43.5595 609.788 54.9978 601.911 57.546C598.468 58.659 594.556 57.7643 592.384 54.7544C592.369 54.7322 592.347 54.7155 592.321 54.7072C592.295 54.6988 592.268 54.6991 592.242 54.7081C592.217 54.7171 592.195 54.7343 592.181 54.7569C592.166 54.7795 592.159 54.8063 592.162 54.8332C592.455 58.4861 592.559 62.1438 592.473 65.8062C592.471 65.9141 592.427 66.017 592.35 66.0926C592.273 66.1683 592.17 66.2106 592.062 66.2106H587.173C587.022 66.2106 586.947 66.1355 586.947 65.9852V35.9685C586.947 35.9211 586.966 35.8755 587 35.842C587.033 35.8084 587.079 35.7896 587.126 35.7896H591.868C592.047 35.7896 592.137 35.8791 592.137 36.058V38.3056C592.137 38.3319 592.145 38.3575 592.16 38.3788C592.176 38.4001 592.197 38.4161 592.222 38.4244C592.247 38.4327 592.274 38.433 592.299 38.4251C592.324 38.4173 592.346 38.4018 592.362 38.3807ZM597.906 52.9506C599.446 52.9506 600.922 52.273 602.011 51.0669C603.099 49.8608 603.711 48.225 603.711 46.5193C603.711 44.8136 603.099 43.1777 602.011 41.9716C600.922 40.7655 599.446 40.0879 597.906 40.0879C596.366 40.0879 594.89 40.7655 593.801 41.9716C592.713 43.1777 592.101 44.8136 592.101 46.5193C592.101 48.225 592.713 49.8608 593.801 51.0669C594.89 52.273 596.366 52.9506 597.906 52.9506Z" fill="white"/>
<path d="M617.816 40.7104C617.046 42.0704 619.129 43.2228 620.3 43.5091C623.589 44.3144 627.117 44.9372 628.971 47.4675C630.169 49.1066 630.43 50.9223 629.755 52.9146C628.173 57.5816 621.91 58.6052 617.712 57.6603C614.768 57.0018 612.669 55.3125 611.417 52.5925C611.357 52.4637 611.393 52.3706 611.524 52.3134L615.998 50.3557C616.122 50.3008 616.218 50.3318 616.288 50.4487C617.798 53.0136 620.068 53.8559 623.098 52.9755C625.174 52.3742 624.866 49.9405 622.977 49.2748C621.788 48.8573 620.097 48.392 617.902 47.879C612.329 46.5799 609.702 39.2931 615.704 36.226C619.999 34.0321 626.849 34.7443 629.39 39.379C629.464 39.515 629.431 39.6129 629.29 39.6725L625.006 41.5371C624.899 41.5849 624.809 41.5622 624.737 41.4692C623.101 39.3576 621.005 38.8398 618.449 39.9159C618.289 39.9827 618.078 40.2475 617.816 40.7104Z" fill="white"/>
<path d="M339.975 35.7893H345.748C345.78 35.7891 345.811 35.7968 345.839 35.8116C345.866 35.8264 345.89 35.848 345.907 35.8743C345.925 35.9006 345.935 35.9308 345.938 35.9622C345.941 35.9936 345.936 36.0252 345.923 36.0542L336.947 57.1485C336.933 57.1827 336.908 57.2118 336.877 57.2321C336.846 57.2525 336.809 57.2632 336.772 57.263H331.554C331.517 57.2632 331.48 57.2525 331.449 57.2321C331.418 57.2118 331.393 57.1827 331.379 57.1485L322.492 36.0542C322.48 36.0252 322.475 35.9936 322.477 35.9622C322.48 35.9308 322.491 35.9006 322.508 35.8743C322.525 35.848 322.549 35.8264 322.577 35.8116C322.605 35.7968 322.636 35.7891 322.667 35.7893H328.526C328.564 35.7897 328.601 35.8014 328.633 35.8231C328.664 35.8448 328.688 35.8755 328.702 35.911L334.031 49.6255C334.044 49.6614 334.069 49.6922 334.1 49.714C334.132 49.7358 334.169 49.7474 334.208 49.7474C334.246 49.7474 334.284 49.7358 334.315 49.714C334.347 49.6922 334.371 49.6614 334.385 49.6255L339.8 35.911C339.814 35.8755 339.838 35.8448 339.869 35.8231C339.9 35.8014 339.937 35.7897 339.975 35.7893Z" fill="white"/>
<path d="M576.35 54.6683C574.57 56.8753 572.362 57.9764 569.726 57.9716C564.168 57.9645 561.924 53.9203 561.906 48.8811C561.889 44.584 561.887 40.2761 561.899 35.9575C561.899 35.9129 561.916 35.8701 561.948 35.8386C561.979 35.807 562.022 35.7893 562.067 35.7893H567.26C567.297 35.7893 567.332 35.804 567.359 35.8302C567.385 35.8564 567.399 35.8919 567.399 35.9289C567.445 40.0566 567.46 44.1819 567.446 48.3049C567.424 54.7327 574.711 54.1314 576.053 48.8739C576.204 48.2822 576.282 47.3517 576.289 46.0824C576.309 42.7014 576.31 39.3134 576.293 35.9181C576.293 35.884 576.307 35.8512 576.331 35.827C576.355 35.8029 576.388 35.7893 576.422 35.7893H581.658C581.708 35.7893 581.756 35.8093 581.792 35.8449C581.828 35.8804 581.848 35.9287 581.848 35.979V56.9946C581.848 57.0658 581.819 57.134 581.769 57.1844C581.719 57.2347 581.65 57.263 581.579 57.263H576.837C576.72 57.263 576.661 57.2033 576.658 57.084L576.655 54.7756C576.655 54.4535 576.553 54.4177 576.35 54.6683Z" fill="white"/>
<path d="M123.632 94.9528C126.139 95.7258 128.31 95.0577 130.145 92.9486C130.255 92.8221 130.371 92.8173 130.492 92.9342L132.486 94.8347C132.76 95.0947 132.756 95.3512 132.472 95.6041C129.923 97.8517 127.304 98.9111 123.857 98.3456C116.563 97.1502 113.271 88.7862 117.673 82.8738C121.144 78.2105 128.08 77.8705 132.182 81.9075C132.294 82.0196 132.294 82.1318 132.182 82.2439L130.077 84.3448C129.972 84.4497 129.868 84.4497 129.766 84.3448C128.1 82.6173 126.123 82.0328 123.832 82.5911C117.787 84.0656 117.648 93.1096 123.632 94.9528Z" fill="white"/>
<path d="M218.352 88.5539C220.205 89.2841 221.383 90.7979 221.412 92.8272C221.505 99.4912 211.981 98.0596 208.055 98.0632C208.001 98.0632 207.949 98.0421 207.911 98.0045C207.872 97.9669 207.851 97.9159 207.851 97.8628L207.844 79.7175C207.844 79.6489 207.871 79.5829 207.92 79.534C207.969 79.4851 208.035 79.4572 208.105 79.4563C210.732 79.4419 214.866 79.0304 217.199 79.7855C221.247 81.1026 222.113 85.9735 218.334 88.3249C218.313 88.3373 218.297 88.3551 218.286 88.3762C218.275 88.3974 218.27 88.4212 218.272 88.4449C218.274 88.4686 218.283 88.4914 218.297 88.5106C218.311 88.5299 218.33 88.5449 218.352 88.5539ZM211.319 82.9744L211.326 87.0401C211.326 87.1217 211.358 87.2 211.416 87.2577C211.474 87.3154 211.552 87.3478 211.634 87.3478L214.977 87.3443C215.603 87.3433 216.203 87.1025 216.646 86.675C217.088 86.2474 217.336 85.6681 217.335 85.0645V84.9356C217.335 84.6367 217.273 84.3408 217.154 84.0648C217.035 83.7888 216.86 83.5381 216.641 83.3271C216.421 83.1161 216.16 82.9488 215.874 82.8348C215.587 82.7209 215.28 82.6625 214.969 82.663L211.627 82.6666C211.586 82.6666 211.546 82.6745 211.509 82.69C211.472 82.7055 211.438 82.7281 211.409 82.7567C211.38 82.7853 211.358 82.8192 211.342 82.8566C211.327 82.8939 211.319 82.9339 211.319 82.9744ZM211.322 90.5367L211.308 94.495C211.308 94.5429 211.318 94.5904 211.336 94.6347C211.354 94.679 211.381 94.7192 211.415 94.7531C211.449 94.787 211.489 94.8139 211.534 94.8323C211.578 94.8506 211.625 94.86 211.673 94.86L215.41 94.8744C215.733 94.8754 216.054 94.8203 216.353 94.7121C216.652 94.6038 216.924 94.4446 217.153 94.2435C217.383 94.0424 217.565 93.8034 217.689 93.5402C217.814 93.2769 217.878 92.9945 217.879 92.7091V92.3655C217.881 91.7895 217.623 91.2364 217.163 90.8277C216.702 90.4189 216.077 90.1881 215.424 90.1859L211.688 90.1716C211.591 90.1716 211.498 90.2101 211.429 90.2786C211.361 90.347 211.322 90.4399 211.322 90.5367Z" fill="white"/>
<path d="M138.294 79.5422H135.317C135.2 79.5422 135.105 79.6368 135.105 79.7534V97.8557C135.105 97.9723 135.2 98.0669 135.317 98.0669H138.294C138.411 98.0669 138.505 97.9723 138.505 97.8557V79.7534C138.505 79.6368 138.411 79.5422 138.294 79.5422Z" fill="white"/>
<path d="M182.266 96.553C179.828 99.8599 175.19 98.661 173.154 95.6296C170.87 92.2332 171.987 86.31 176.274 84.8391C178.604 84.041 180.83 84.4848 182.33 86.4854C182.338 86.4972 182.349 86.5062 182.363 86.5108C182.376 86.5155 182.391 86.5156 182.404 86.5111C182.418 86.5066 182.429 86.4978 182.437 86.486C182.445 86.4743 182.449 86.4602 182.448 86.446L182.309 79.8357C182.304 79.6401 182.399 79.5422 182.595 79.5422H185.569C185.688 79.5422 185.748 79.6019 185.748 79.7212V97.7949C185.748 97.9738 185.658 98.0633 185.479 98.0633H182.795C182.616 98.0633 182.527 97.9738 182.527 97.7949V96.6389C182.527 96.3478 182.44 96.3191 182.266 96.553ZM179.014 95.3824C179.967 95.3725 180.876 94.9519 181.542 94.2133C182.209 93.4747 182.577 92.4786 182.566 91.444C182.555 90.4094 182.166 89.4212 181.485 88.6967C180.803 87.9722 179.885 87.5708 178.932 87.5808C177.979 87.5907 177.07 88.0113 176.403 88.7499C175.737 89.4885 175.369 90.4847 175.38 91.5192C175.391 92.5538 175.78 93.542 176.461 94.2665C177.143 94.991 178.061 95.3924 179.014 95.3824Z" fill="white"/>
<path d="M227.249 86.5319C230.324 82.749 236.161 84.2987 236.251 89.4631C236.308 92.77 236.321 95.558 236.29 97.8271C236.29 97.9846 236.211 98.0633 236.054 98.0633H233.148C232.985 98.0633 232.903 97.9822 232.901 97.8199C232.901 95.2622 232.898 92.7211 232.893 90.1968C232.89 86.9399 229.057 86.8111 227.722 89.3951C226.802 91.1774 227.26 95.7298 227.246 97.8307C227.246 97.9857 227.168 98.0633 227.013 98.0633H224.132C223.953 98.0633 223.864 97.9738 223.864 97.7949V79.8107C223.864 79.6317 223.953 79.5422 224.132 79.5422H227.06C227.222 79.5422 227.302 79.6234 227.3 79.7856L227.174 86.5069C227.175 86.5153 227.178 86.5234 227.183 86.5301C227.188 86.5367 227.196 86.5417 227.204 86.5444C227.212 86.5471 227.22 86.5473 227.228 86.5451C227.237 86.5429 227.244 86.5383 227.249 86.5319Z" fill="white"/>
<path d="M258.218 86.4675C258.218 86.4815 258.221 86.4954 258.229 86.5074C258.236 86.5193 258.247 86.5287 258.26 86.5342C258.272 86.5397 258.286 86.5411 258.299 86.5381C258.312 86.5351 258.324 86.528 258.332 86.5176C260.024 84.5062 262.14 83.9646 264.682 84.8928C269.921 86.8003 270.139 95.4399 265.097 97.9022C262.803 99.0224 260.097 98.6538 258.451 96.5494C258.298 96.3537 258.222 96.38 258.222 96.6281V97.8378C258.222 97.9881 258.146 98.0633 257.996 98.0633H255.269C255.09 98.0633 255 97.9738 255 97.7949V79.7677C255 79.6174 255.074 79.5422 255.222 79.5422H258.143C258.281 79.5422 258.354 79.6114 258.361 79.7498C258.478 81.995 258.43 84.2342 258.218 86.4675ZM261.787 95.3755C262.26 95.3779 262.728 95.2796 263.165 95.086C263.603 94.8924 264.001 94.6074 264.337 94.2472C264.672 93.8871 264.94 93.4588 265.123 92.9869C265.306 92.515 265.402 92.0087 265.404 91.4969C265.407 90.985 265.317 90.4777 265.138 90.0039C264.96 89.5301 264.698 89.0991 264.365 88.7354C264.033 88.3718 263.638 88.0826 263.203 87.8845C262.768 87.6863 262.3 87.5831 261.828 87.5806C261.356 87.5781 260.887 87.6765 260.45 87.8701C260.013 88.0636 259.615 88.3486 259.279 88.7088C258.943 89.069 258.676 89.4972 258.492 89.9691C258.309 90.4411 258.214 90.9474 258.211 91.4592C258.208 91.971 258.299 92.4783 258.477 92.9521C258.655 93.4259 258.918 93.857 259.25 94.2206C259.582 94.5843 259.977 94.8734 260.412 95.0716C260.848 95.2697 261.315 95.373 261.787 95.3755Z" fill="white"/>
<path d="M154.951 91.4885C154.951 93.3613 154.207 95.1573 152.882 96.4816C151.558 97.8058 149.762 98.5498 147.889 98.5498C146.017 98.5498 144.221 97.8058 142.896 96.4816C141.572 95.1573 140.828 93.3613 140.828 91.4885C140.828 89.6157 141.572 87.8197 142.896 86.4954C144.221 85.1712 146.017 84.4272 147.889 84.4272C149.762 84.4272 151.558 85.1712 152.882 86.4954C154.207 87.8197 154.951 89.6157 154.951 91.4885ZM147.865 95.4038C148.346 95.4064 148.822 95.3076 149.267 95.1131C149.711 94.9187 150.116 94.6324 150.458 94.2706C150.799 93.9088 151.071 93.4786 151.257 93.0045C151.443 92.5305 151.541 92.0218 151.543 91.5077C151.546 90.9935 151.454 90.4839 151.273 90.0079C151.092 89.5319 150.824 89.0988 150.487 88.7335C150.149 88.3681 149.747 88.0776 149.304 87.8785C148.862 87.6795 148.387 87.5757 147.906 87.5732C147.426 87.5707 146.95 87.6694 146.505 87.8639C146.06 88.0583 145.656 88.3446 145.314 88.7064C144.972 89.0682 144.701 89.4984 144.514 89.9725C144.328 90.4466 144.231 90.9552 144.228 91.4694C144.225 91.9835 144.317 92.4932 144.499 92.9692C144.68 93.4451 144.947 93.8782 145.285 94.2435C145.623 94.6089 146.024 94.8994 146.467 95.0985C146.91 95.2976 147.385 95.4013 147.865 95.4038Z" fill="white"/>
<path d="M279.266 96.7963C273.64 102.419 266.65 92.8594 273.546 89.9497C275.329 89.1982 277.239 89.2316 279.276 90.0499C279.403 90.1001 279.476 90.0583 279.495 89.9247C279.67 88.783 279.101 87.967 278.009 87.5912C276.287 86.9995 274.754 87.3836 273.41 88.7436C273.313 88.8438 273.209 88.8498 273.099 88.7615L271.299 87.2834C271.175 87.1808 271.168 87.0711 271.277 86.9542C273.654 84.4417 276.47 83.7808 279.727 84.9714C282.354 85.927 282.791 88.0099 282.816 90.755C282.837 93.1099 282.837 95.4673 282.816 97.827C282.816 97.9845 282.736 98.0632 282.576 98.0632H279.742C279.591 98.0632 279.516 97.988 279.516 97.8377V96.9036C279.516 96.665 279.433 96.6292 279.266 96.7963ZM279.316 92.5087C277.809 91.9754 275.06 91.324 274.266 93.2746C272.956 96.4992 279.183 97.2078 279.495 92.7807C279.504 92.6447 279.445 92.554 279.316 92.5087Z" fill="white"/>
<path d="M289.254 86.4246C292.336 82.8993 297.944 84.2772 298.087 89.277C298.149 91.4673 298.156 94.3197 298.109 97.8343C298.106 97.987 298.029 98.0633 297.876 98.0633H294.974C294.809 98.0633 294.727 97.981 294.727 97.8164C294.727 95.4781 294.725 93.153 294.723 90.841C294.716 85.877 289.441 87.0509 289.222 90.8911C289.16 91.9719 289.152 94.2911 289.197 97.8486C289.197 97.9917 289.126 98.0633 288.982 98.0633H286.048C285.869 98.0633 285.779 97.9738 285.779 97.7949V85.1362C285.779 84.9858 285.853 84.9107 286.001 84.9107H288.775C288.925 84.9107 289 84.9846 289 85.1326V86.3279C289 86.5856 289.085 86.6178 289.254 86.4246Z" fill="white"/>
<path d="M304.222 92.562C304.97 95.9548 309.075 96.6778 311 93.8611C311.069 93.7609 311.158 93.7371 311.265 93.7896L313.609 94.9313C313.645 94.948 313.676 94.9725 313.7 95.003C313.725 95.0335 313.743 95.0692 313.752 95.1075C313.761 95.1459 313.762 95.1859 313.754 95.2247C313.746 95.2636 313.729 95.3002 313.706 95.3321C312.193 97.3482 310.301 98.3802 308.03 98.4279C300.292 98.5961 298.223 88.3531 304.687 85.1214C306.841 84.0441 309.622 84.266 311.566 85.7298C313.529 87.2067 314.334 89.3517 313.981 92.1647C313.967 92.2792 313.903 92.3365 313.788 92.3365H304.401C304.248 92.3365 304.188 92.4117 304.222 92.562ZM304.476 89.8527L310.775 89.8384C310.791 89.8384 310.806 89.832 310.818 89.8206C310.829 89.8092 310.835 89.7937 310.835 89.7776V89.7668C310.835 89.4491 310.752 89.1346 310.592 88.8414C310.432 88.5482 310.198 88.282 309.903 88.058C309.608 87.834 309.258 87.6565 308.874 87.5359C308.489 87.4152 308.077 87.3536 307.661 87.3546H307.575C306.735 87.3567 305.93 87.6135 305.338 88.0685C304.745 88.5236 304.413 89.1396 304.415 89.7811V89.7919C304.415 89.808 304.421 89.8235 304.433 89.8349C304.444 89.8463 304.46 89.8527 304.476 89.8527Z" fill="white"/>
<path d="M319.604 88.2173C319.446 89.7635 322.424 89.9639 323.505 90.3003C324.652 90.6558 325.489 91.0769 326.014 91.5637C327.724 93.142 327.442 95.8262 325.538 97.1647C322.499 99.2978 317.61 98.854 315.706 95.2357C315.692 95.2076 315.683 95.1769 315.681 95.1454C315.679 95.1139 315.683 95.0824 315.693 95.0528C315.704 95.0232 315.72 94.9962 315.741 94.9735C315.763 94.9508 315.788 94.9328 315.817 94.9207L318.373 93.8041C318.523 93.7373 318.645 93.7719 318.738 93.9079C321.336 97.6765 325.824 94.0224 322.685 93.0561C321.11 92.5693 319.028 92.2687 317.882 91.4312C315.384 89.5952 315.831 86.2597 318.652 85.0428C321.4 83.8582 325.176 84.3879 326.708 87.2546C326.777 87.3834 326.745 87.4777 326.611 87.5373L324.178 88.6003C324.044 88.6599 323.931 88.6325 323.838 88.518C322.845 87.2892 321.58 86.9921 320.044 87.6268C319.924 87.6752 319.82 87.7559 319.742 87.8599C319.665 87.964 319.617 88.0876 319.604 88.2173Z" fill="white"/>
<path d="M358.7 96.7891C357.157 98.3733 355.336 98.8255 353.239 98.1455C349.306 96.8714 349.177 91.4672 352.999 89.9461C354.834 89.2184 356.745 89.2506 358.733 90.0427C358.859 90.0929 358.932 90.0511 358.951 89.9175C359.119 88.7794 358.546 87.9562 357.458 87.5912C355.719 87.0066 354.179 87.3991 352.838 88.7686C352.762 88.845 352.681 88.8486 352.595 88.7794L350.719 87.2619C350.619 87.1832 350.612 87.0949 350.698 86.9971C352.59 84.8569 355.018 84.0719 357.981 84.6421C361.549 85.3293 362.261 87.5196 362.276 90.9518C362.285 93.2423 362.285 95.5328 362.276 97.8234C362.273 97.9832 362.192 98.0632 362.032 98.0632H359.194C359.044 98.0632 358.969 97.988 358.969 97.8377V96.9C358.969 96.6423 358.879 96.6053 358.7 96.7891ZM358.779 92.5122C357.272 91.9718 354.577 91.3526 353.722 93.203C352.262 96.3524 358.604 97.3402 358.962 92.795C358.974 92.6542 358.913 92.5599 358.779 92.5122Z" fill="white"/>
<path d="M368.757 86.5855C368.756 86.6154 368.765 86.6448 368.782 86.6693C368.799 86.6937 368.824 86.7118 368.852 86.7208C368.881 86.7298 368.912 86.7291 368.94 86.7189C368.968 86.7086 368.992 86.6894 369.008 86.6642C370.246 84.7984 371.991 84.1279 374.244 84.6529C374.38 84.6863 374.448 84.7722 374.448 84.9105V87.856C374.448 88.0039 374.375 88.0636 374.229 88.035C372.211 87.6484 370.386 87.3156 369.391 89.5703C368.575 91.4206 368.986 95.6259 368.99 97.8735C368.99 97.9999 368.927 98.0632 368.8 98.0632H365.769C365.721 98.0632 365.676 98.0443 365.642 98.0108C365.609 97.9772 365.59 97.9317 365.59 97.8842V85.0895C365.59 84.9702 365.649 84.9105 365.769 84.9105H368.646C368.775 84.9105 368.837 84.975 368.832 85.1038L368.757 86.5855Z" fill="white"/>
<path d="M334.389 93.3061C334.395 93.3324 334.41 93.3556 334.432 93.3723C334.453 93.3889 334.479 93.3981 334.506 93.3985C334.534 93.3989 334.561 93.3905 334.583 93.3745C334.606 93.3585 334.623 93.3358 334.632 93.3097L337.155 85.0674C337.198 84.9219 337.297 84.8443 337.452 84.8348C337.982 84.8097 340.659 84.6022 340.827 85.1676C341.939 88.9184 342.751 91.6288 343.264 93.299C343.36 93.6163 343.45 93.6151 343.536 93.2954L345.709 85.0209C345.745 84.8873 345.832 84.8205 345.97 84.8205H349.248C349.411 84.8205 349.468 84.8992 349.42 85.0567L345.379 97.8407C345.359 97.9052 345.318 97.9615 345.264 98.0014C345.209 98.0413 345.143 98.0627 345.075 98.0626H341.869C341.735 98.0626 341.648 97.9993 341.607 97.8729L339.005 89.5876C338.997 89.5649 338.982 89.545 338.963 89.5309C338.943 89.5168 338.919 89.5092 338.896 89.5092C338.872 89.5092 338.849 89.5168 338.83 89.5309C338.811 89.545 338.797 89.5649 338.791 89.5876L336.228 97.8371C336.18 97.9874 336.079 98.0626 335.924 98.0626H332.742C332.611 98.0626 332.525 97.9993 332.485 97.8729L328.444 85.0638C328.394 84.9016 328.453 84.8205 328.623 84.8205H331.951C332.092 84.8205 332.179 84.8873 332.213 85.0209L334.389 93.3061Z" fill="white"/>
<path d="M166.711 96.4847C166.711 96.4647 166.705 96.4452 166.694 96.4289C166.682 96.4125 166.666 96.4002 166.647 96.3935C166.628 96.3869 166.608 96.3862 166.588 96.3916C166.569 96.3971 166.552 96.4083 166.539 96.4239C163.268 100.321 157.667 98.6106 157.61 93.3388C157.567 89.5499 157.552 86.8216 157.563 85.1538C157.566 84.9915 157.648 84.9104 157.81 84.9104H160.717C160.881 84.9104 160.963 84.9927 160.963 85.1573C160.961 87.7127 160.963 90.2526 160.971 92.7769C160.985 96.7854 166.353 95.9371 166.486 91.875C166.522 90.7727 166.528 88.5204 166.504 85.118C166.501 84.9796 166.569 84.9104 166.708 84.9104H169.642C169.821 84.9104 169.911 84.9999 169.911 85.1788V97.8268C169.911 97.9819 169.833 98.0595 169.678 98.0595L166.908 98.063C166.755 98.063 166.68 97.9867 166.683 97.834L166.711 96.4847Z" fill="white"/>
<path d="M248.429 96.499C245.165 100.346 239.629 98.5355 239.568 93.3352C239.522 89.5941 239.507 86.8669 239.521 85.1538C239.524 84.9915 239.606 84.9104 239.768 84.9104H242.674C242.839 84.9104 242.921 84.9927 242.921 85.1573C242.919 87.7127 242.921 90.2526 242.928 92.7769C242.939 96.7281 248.218 95.9121 248.433 92.0862C248.485 91.1366 248.493 88.8162 248.454 85.1251C248.452 84.982 248.522 84.9104 248.665 84.9104H251.6C251.779 84.9104 251.869 84.9999 251.869 85.1788V97.8411C251.869 97.9891 251.795 98.063 251.647 98.063H248.905C248.719 98.063 248.63 97.97 248.637 97.7839L248.68 96.5957C248.689 96.3237 248.606 96.2915 248.429 96.499Z" fill="white"/>
<path d="M197.079 93.2848C198.458 93.2848 199.577 92.1663 199.577 90.7867C199.577 89.407 198.458 88.2886 197.079 88.2886C195.699 88.2886 194.581 89.407 194.581 90.7867C194.581 92.1663 195.699 93.2848 197.079 93.2848Z" fill="white"/>
<path d="M20.0063 36.5018C18.1417 35.3422 16.8604 35.0809 14.688 34.8805C14.6514 34.8762 14.6169 34.8607 14.5894 34.836C14.5619 34.8113 14.5428 34.7787 14.5349 34.743C14.5269 34.7073 14.5305 34.6702 14.5452 34.637C14.5598 34.6039 14.5848 34.5763 14.6164 34.5584C22.1203 30.2684 29.4786 26.0298 36.6914 21.8424C42.2173 18.6357 49.0352 23.4207 47.0632 29.7197C46.3295 32.0746 44.8764 33.159 42.5895 34.4689C38.2685 36.9456 33.9594 39.4449 29.6623 41.9668C29.5597 42.0289 29.4559 42.0289 29.3509 41.9668C26.2444 40.1416 23.0627 38.4129 20.0063 36.5018Z" fill="white"/>
<path d="M86.3528 47.5712C78.3717 43.0904 70.4229 38.4986 62.5349 33.8531C58.8307 31.6699 57.5279 27.3752 59.9795 23.7962C61.5399 21.5272 64.5892 20.1636 67.3235 20.8579C67.9677 21.0226 69.0247 21.526 70.4945 22.3682C77.6595 26.4793 84.8126 30.6141 91.9538 34.7729C95.1749 36.6482 97.3867 37.7398 98.0595 40.9752C99.0044 45.5169 94.9065 50.0192 90.2359 49.2247C89.3412 49.072 88.0468 48.5208 86.3528 47.5712Z" fill="white"/>
<path d="M36.5588 62.8531C28.6457 58.3007 20.7828 53.6696 12.8482 49.1565C11.703 48.5028 10.8691 47.9373 10.3466 47.4601C3.99751 41.6371 11.5777 32.0849 18.9396 36.6266C26.7775 41.4582 35.0127 45.8531 43.0009 50.4628C46.1038 52.2523 48.1045 54.822 47.224 58.5334C46.043 63.5224 41.0002 65.4121 36.5588 62.8531Z" fill="white"/>
<path d="M76.8258 42.8255C77.7492 43.3302 85.2721 47.8933 85.4511 47.8683C85.5752 47.8492 85.6849 47.879 85.7803 47.9577C87.5126 49.3344 89.4893 49.9703 91.7107 49.8653C91.729 49.8655 91.7469 49.8716 91.7615 49.8827C91.7762 49.8938 91.7869 49.9092 91.7921 49.9269C91.7973 49.9445 91.7967 49.9633 91.7904 49.9806C91.7842 49.9978 91.7725 50.0126 91.7572 50.0228C84.0219 54.5108 76.2818 58.9678 68.537 63.3937C65.6953 65.0186 61.8873 63.4188 60.2625 61.2607C57.6677 57.807 58.5625 53.3584 62.2738 51.0821C64.6145 49.6482 69.3625 46.8972 76.518 42.8291C76.6182 42.7694 76.7208 42.7683 76.8258 42.8255Z" fill="white"/>
</svg>
