<svg width="314" height="59" viewBox="0 0 314 59" fill="none" xmlns="http://www.w3.org/2000/svg">
<path d="M7.13941 16.9543C8.19536 17.0517 8.81814 17.1787 9.72448 17.7424C11.2101 18.6713 12.7566 19.5115 14.2666 20.3988C14.3176 20.4289 14.3681 20.4289 14.4179 20.3988C16.5066 19.1729 18.6011 17.9581 20.7014 16.7543C21.813 16.1176 22.5193 15.5905 22.8759 14.4458C23.8345 11.3841 20.5205 9.05822 17.8345 10.6169C14.3286 12.6523 10.752 14.7125 7.10462 16.7978C7.08924 16.8065 7.07712 16.8199 7.07 16.836C7.06288 16.8521 7.06113 16.8701 7.06499 16.8875C7.06885 16.9048 7.07812 16.9207 7.09149 16.9327C7.10486 16.9447 7.12163 16.9523 7.13941 16.9543Z" stroke="#933C36" stroke-width="0.347922"/>
<path d="M6.24508 23.8936C10.1018 26.0873 13.9237 28.3383 17.77 30.5511C19.9289 31.7949 22.38 30.8764 22.9541 28.4514C23.382 26.6474 22.4096 25.3984 20.9013 24.5286C17.0185 22.288 13.0156 20.1517 9.2059 17.8032C5.62752 15.5957 1.94302 20.2387 5.02909 23.069C5.28307 23.301 5.6884 23.5759 6.24508 23.8936Z" stroke="#355B93" stroke-width="0.347922"/>
<path d="M30.3963 16.455C34.2304 18.713 38.0941 20.945 41.9734 23.123C42.7968 23.5845 43.426 23.8524 43.8609 23.9267C46.1311 24.3129 48.1229 22.1244 47.6637 19.9169C47.3366 18.3443 46.2615 17.8137 44.6959 16.9021C41.2248 14.8807 37.7479 12.8709 34.2652 10.8726C33.5508 10.4632 33.037 10.2185 32.7239 10.1385C31.3948 9.80101 29.9127 10.4638 29.1542 11.5667C27.9626 13.3063 28.5958 15.3939 30.3963 16.455Z" stroke="#30683D" stroke-width="0.347922"/>
<path d="M41.5349 23.2673C41.4479 23.2795 37.7912 21.0615 37.3424 20.8162C37.2914 20.7884 37.2415 20.789 37.1928 20.818C33.7147 22.7953 31.4068 24.1325 30.2691 24.8295C28.4652 25.9359 28.0302 28.0982 29.2915 29.777C30.0813 30.826 31.9322 31.6036 33.3134 30.8138C37.078 28.6625 40.8402 26.4961 44.6001 24.3146C44.6075 24.3097 44.6132 24.3025 44.6162 24.2941C44.6193 24.2857 44.6195 24.2765 44.617 24.268C44.6145 24.2594 44.6093 24.2519 44.6022 24.2465C44.595 24.2411 44.5864 24.2381 44.5774 24.238C43.4977 24.2891 42.5369 23.98 41.6949 23.3108C41.6485 23.2726 41.5952 23.2581 41.5349 23.2673Z" stroke="#937114" stroke-width="0.347922"/>
<path d="M14.8215 20.7066C16.8267 21.8826 18.8481 23.0528 20.8858 24.2171C21.6512 24.6555 22.1737 25.04 22.4532 25.3705C24.1006 27.3258 23.2552 30.3093 20.8997 31.1878C19.5393 31.6957 18.5443 31.3165 17.2396 30.5667C13.5562 28.449 9.87464 26.3256 6.19478 24.1963C5.2867 23.6709 4.68131 23.2203 4.37862 22.8446C3.34355 21.559 3.40096 19.4976 4.4743 18.252C4.77815 17.8983 5.40673 17.4472 6.36004 16.8986C10.2614 14.6487 14.1616 12.3988 18.0607 10.1489C18.3784 9.96566 18.7693 9.85027 19.2332 9.80272C22.4793 9.47567 24.6155 13.3463 22.4236 15.827C22.1116 16.1796 21.4117 16.6707 20.3239 17.3004C18.4962 18.3581 16.662 19.428 14.8215 20.51C14.8044 20.5203 14.7902 20.5349 14.7803 20.5523C14.7704 20.5697 14.7652 20.5893 14.7652 20.6092C14.7652 20.6291 14.7704 20.6485 14.7803 20.6656C14.7902 20.6827 14.8044 20.6968 14.8215 20.7066ZM7.13939 16.9543C8.19533 17.0517 8.81811 17.1787 9.72445 17.7423C11.2101 18.6713 12.7566 19.5115 14.2666 20.3987C14.3176 20.4289 14.3681 20.4289 14.4179 20.3987C16.5066 19.1729 18.6011 17.958 20.7014 16.7542C21.813 16.1175 22.5193 15.5904 22.8759 14.4457C23.8344 11.384 20.5205 9.05816 17.8345 10.6169C14.3286 12.6522 10.752 14.7125 7.10459 16.7977C7.08921 16.8064 7.07709 16.8198 7.06997 16.8359C7.06286 16.852 7.0611 16.8701 7.06496 16.8874C7.06882 16.9048 7.0781 16.9206 7.09146 16.9326C7.10483 16.9446 7.1216 16.9522 7.13939 16.9543ZM6.24523 23.8936C10.1019 26.0872 13.9239 28.3383 17.7702 30.5511C19.929 31.7949 22.3801 30.8764 22.9542 28.4514C23.3821 26.6474 22.4097 25.3983 20.9015 24.5285C17.0186 22.2879 13.0158 20.1517 9.20605 17.8032C5.62766 15.5956 1.94316 20.2387 5.02924 23.069C5.28322 23.301 5.68855 23.5758 6.24523 23.8936Z" fill="white"/>
<path d="M36.7699 20.4718C34.7694 19.3178 32.7532 18.1511 30.7213 16.9716C29.2165 16.0966 28.2093 15.1311 28.2772 13.3967C28.3537 11.4136 29.9141 9.8549 31.8729 9.80793C32.9671 9.78183 33.6404 10.222 34.5659 10.7525C40.4805 14.1459 44.3506 16.3779 46.176 17.4483C48.1209 18.5878 48.5454 21.2059 47.1346 22.9246C46.8516 23.2679 46.3703 23.6349 45.6907 24.0258C41.7267 26.3093 37.765 28.5986 33.8056 30.8938C32.0799 31.8958 30.0168 31.4 28.8912 29.7021C27.7222 27.9399 28.2893 25.6314 30.102 24.579C32.2777 23.3149 34.5003 22.027 36.7699 20.7153C36.7912 20.7029 36.8089 20.6851 36.8212 20.6638C36.8335 20.6424 36.84 20.6182 36.84 20.5935C36.84 20.5689 36.8335 20.5447 36.8212 20.5233C36.8089 20.5019 36.7912 20.4842 36.7699 20.4718ZM30.396 16.455C34.2301 18.713 38.0938 20.9449 41.9731 23.1229C42.7965 23.5845 43.4257 23.8524 43.8606 23.9266C46.1308 24.3128 48.1226 22.1244 47.6634 19.9168C47.3363 18.3442 46.2613 17.8136 44.6956 16.9021C41.2245 14.8806 37.7476 12.8708 34.2649 10.8726C33.5505 10.4632 33.0367 10.2185 32.7236 10.1385C31.3945 9.80097 29.9124 10.4638 29.1539 11.5667C27.9623 13.3063 28.5955 15.3938 30.396 16.455ZM41.5347 23.2673C41.4478 23.2795 37.7911 21.0615 37.3423 20.8162C37.2912 20.7884 37.2414 20.7889 37.1927 20.8179C33.7146 22.7953 31.4067 24.1325 30.269 24.8295C28.465 25.9359 28.0301 28.0982 29.2913 29.7769C30.0811 30.8259 31.9321 31.6035 33.3133 30.8137C37.0779 28.6624 40.8401 26.496 44.5999 24.3146C44.6074 24.3096 44.613 24.3024 44.6161 24.294C44.6191 24.2856 44.6194 24.2765 44.6169 24.2679C44.6144 24.2594 44.6092 24.2518 44.602 24.2465C44.5949 24.2411 44.5862 24.2381 44.5773 24.238C43.4976 24.289 42.5368 23.98 41.6948 23.3108C41.6484 23.2725 41.595 23.258 41.5347 23.2673Z" fill="white"/>
<path d="M67.1038 22.093H62.8435C62.7275 22.093 62.6695 22.0351 62.6695 21.9191V19.962C62.6695 19.875 62.713 19.8315 62.8 19.8315H69.7115C69.7477 19.8317 69.7827 19.845 69.8099 19.869C69.8371 19.893 69.8547 19.926 69.8593 19.962C71.0457 28.6566 59.7644 31.1182 56.0016 24.3024C53.2425 19.301 56.5304 13.3028 62.1772 12.9027C64.5593 12.7345 66.5825 13.4692 68.2467 15.1068C68.2908 15.1497 68.2902 15.1926 68.245 15.2355L66.4566 16.9681C66.4033 17.0203 66.3511 17.0203 66.3001 16.9681C63.5219 14.183 58.9589 15.4669 57.9691 19.1792C56.8801 23.2603 60.6463 26.6213 64.5709 25.2557C65.9997 24.7593 66.873 23.741 67.1908 22.2009C67.2058 22.129 67.1768 22.093 67.1038 22.093Z" fill="white"/>
<path d="M248.298 22.2061C248.301 22.1924 248.301 22.1783 248.297 22.1647C248.294 22.1511 248.288 22.1384 248.279 22.1276C248.27 22.1168 248.259 22.1081 248.246 22.1021C248.234 22.0961 248.22 22.093 248.206 22.093H243.873C243.8 22.093 243.763 22.0565 243.763 21.9834V19.962C243.763 19.875 243.806 19.8315 243.893 19.8315H250.805C250.836 19.8316 250.866 19.8426 250.889 19.8627C250.913 19.8827 250.929 19.9106 250.934 19.9411C251.901 25.8367 246.522 29.6064 241.171 27.7224C235.719 25.8019 234.322 18.4642 238.729 14.7293C241.75 12.1703 246.527 12.1999 249.326 15.1137C249.373 15.1613 249.371 15.2088 249.323 15.2564L247.55 16.9664C247.499 17.0163 247.449 17.0157 247.399 16.9647C244.012 13.5533 238.342 16.3401 238.937 21.1432C239.254 23.6952 241.126 25.4696 243.761 25.5723C245.918 25.6575 247.849 24.3615 248.298 22.2061Z" fill="white"/>
<path d="M112.289 13.2228H109.752C109.714 13.2228 109.683 13.2539 109.683 13.2924V27.7625C109.683 27.8009 109.714 27.832 109.752 27.832H112.289C112.327 27.832 112.358 27.8009 112.358 27.7625V13.2924C112.358 13.2539 112.327 13.2228 112.289 13.2228Z" fill="white"/>
<path d="M131.925 13.3828C131.925 13.3588 131.93 13.3351 131.939 13.3129C131.948 13.2908 131.962 13.2706 131.979 13.2537C131.996 13.2367 132.016 13.2233 132.038 13.2141C132.06 13.2049 132.084 13.2002 132.108 13.2002L137.313 13.1915C138.24 13.1899 139.158 13.3686 140.015 13.7175C140.872 14.0664 141.65 14.5787 142.307 15.225C142.963 15.8713 143.485 16.639 143.841 17.4843C144.197 18.3297 144.381 19.236 144.383 20.1517V20.8475C144.386 22.6967 143.645 24.4714 142.324 25.7812C141.003 27.0911 139.209 27.8288 137.337 27.8321L132.132 27.8407C132.084 27.8407 132.037 27.8215 132.003 27.7873C131.969 27.753 131.95 27.7065 131.95 27.6581L131.925 13.3828ZM134.731 15.8827V25.1687C134.731 25.183 134.737 25.1967 134.747 25.2068C134.757 25.217 134.771 25.2226 134.785 25.2226H137.212C137.789 25.2226 138.36 25.1094 138.892 24.8895C139.425 24.6695 139.909 24.3471 140.317 23.9407C140.724 23.5343 141.048 23.0517 141.269 22.5207C141.489 21.9897 141.603 21.4205 141.603 20.8458V20.2056C141.603 19.6308 141.489 19.0617 141.269 18.5306C141.048 17.9996 140.724 17.5171 140.317 17.1107C139.909 16.7043 139.425 16.3819 138.892 16.1619C138.36 15.9419 137.789 15.8287 137.212 15.8287H134.785C134.771 15.8287 134.757 15.8344 134.747 15.8445C134.737 15.8546 134.731 15.8684 134.731 15.8827Z" fill="white"/>
<path d="M183.785 13.2228H181.262C181.216 13.2228 181.179 13.2602 181.179 13.3063V27.7485C181.179 27.7947 181.216 27.832 181.262 27.832H183.785C183.831 27.832 183.868 27.7947 183.868 27.7485V13.3063C183.868 13.2602 183.831 13.2228 183.785 13.2228Z" fill="white"/>
<path d="M82.5394 21.8339C83.4075 28.7193 73.857 30.6328 71.8095 24.4764C71.4859 23.5022 71.4256 22.5071 71.6286 21.4912C72.8533 15.3747 81.7583 15.6426 82.5394 21.8339ZM77.0758 25.7567C77.4525 25.7554 77.8253 25.6728 78.1728 25.5137C78.5202 25.3546 78.8357 25.1221 79.101 24.8294C79.3664 24.5368 79.5765 24.1897 79.7193 23.808C79.8621 23.4263 79.9349 23.0175 79.9335 22.6049C79.9306 21.7717 79.6255 20.9737 79.0855 20.3864C78.5455 19.799 77.8147 19.4706 77.0539 19.4732C76.6772 19.4746 76.3045 19.5571 75.957 19.7162C75.6095 19.8753 75.2941 20.1078 75.0287 20.4005C74.7633 20.6932 74.5533 21.0403 74.4104 21.4219C74.2676 21.8036 74.1948 22.2124 74.1963 22.625C74.1992 23.4582 74.5042 24.2563 75.0442 24.8436C75.5842 25.4309 76.315 25.7593 77.0758 25.7567Z" fill="white"/>
<path d="M95.0648 21.8339C95.9329 28.7193 86.3824 30.6328 84.3349 24.4764C84.0113 23.5022 83.951 22.5071 84.154 21.4912C85.3787 15.3747 94.2837 15.6426 95.0648 21.8339ZM89.6012 25.7567C89.9779 25.7554 90.3507 25.6728 90.6982 25.5137C91.0456 25.3546 91.3611 25.1221 91.6264 24.8294C91.8918 24.5368 92.1019 24.1897 92.2447 23.808C92.3875 23.4263 92.4603 23.0175 92.4589 22.6049C92.456 21.7717 92.1509 20.9737 91.6109 20.3864C91.0709 19.799 90.3401 19.4706 89.5793 19.4732C89.2026 19.4746 88.8298 19.5571 88.4824 19.7162C88.1349 19.8753 87.8194 20.1078 87.5541 20.4005C87.2887 20.6932 87.0786 21.0403 86.9358 21.4219C86.793 21.8036 86.7202 22.2124 86.7217 22.625C86.7246 23.4582 87.0296 24.2563 87.5696 24.8436C88.1096 25.4309 88.8404 25.7593 89.6012 25.7567Z" fill="white"/>
<path d="M104.596 26.3951C103.806 27.2719 102.876 27.7515 101.806 27.8338C98.9772 28.0512 96.8966 25.8385 96.6357 23.0499C96.4374 20.938 97.0793 19.279 98.5614 18.0728C100.294 16.662 103.1 16.6116 104.532 18.4886C104.542 18.5024 104.557 18.5125 104.574 18.5175C104.59 18.5225 104.608 18.5223 104.625 18.5167C104.641 18.5112 104.655 18.5006 104.666 18.4865C104.676 18.4724 104.681 18.4555 104.681 18.4381V17.5266C104.681 17.4396 104.725 17.3961 104.812 17.3961H107.152C107.212 17.3961 107.242 17.4263 107.242 17.4866C107.253 20.2839 107.254 23.0783 107.246 25.8698C107.241 27.4586 107.144 28.5523 106.953 29.1507C105.534 33.6232 98.9146 33.6093 96.9436 29.6012C96.9344 29.5826 96.9292 29.5623 96.9281 29.5416C96.9271 29.5209 96.9304 29.5001 96.9378 29.4807C96.9451 29.4613 96.9564 29.4436 96.9708 29.4287C96.9853 29.4138 97.0027 29.4021 97.0219 29.3942L99.2816 28.4688C99.305 28.4593 99.331 28.4585 99.3549 28.4665C99.3788 28.4745 99.3991 28.4907 99.4121 28.5122C100.058 29.5572 100.93 30.0762 102.027 30.0692C104.224 30.0535 104.845 28.3 104.666 26.4177C104.665 26.41 104.662 26.4027 104.657 26.3967C104.652 26.3907 104.646 26.3862 104.638 26.3838C104.631 26.3814 104.623 26.3812 104.616 26.3832C104.608 26.3852 104.601 26.3894 104.596 26.3951ZM101.917 25.4135C102.278 25.4198 102.636 25.3491 102.971 25.2053C103.306 25.0616 103.613 24.8476 103.872 24.5757C104.132 24.3038 104.339 23.9793 104.484 23.6206C104.628 23.262 104.705 22.8762 104.712 22.4854C104.726 21.6961 104.45 20.9341 103.946 20.367C103.441 19.7999 102.749 19.4742 102.021 19.4615C101.661 19.4552 101.303 19.526 100.968 19.6697C100.632 19.8135 100.326 20.0274 100.067 20.2993C99.807 20.5712 99.5992 20.8957 99.4551 21.2544C99.3109 21.6131 99.2332 21.9988 99.2264 22.3896C99.2126 23.1789 99.4884 23.9409 99.9931 24.508C100.498 25.0751 101.19 25.4008 101.917 25.4135Z" fill="white"/>
<path d="M116.965 23.4482C117.559 26.0785 120.896 26.5778 122.364 24.3546C122.4 24.3001 122.448 24.2873 122.509 24.3163L124.504 25.2818C124.515 25.2874 124.526 25.2952 124.534 25.3048C124.543 25.3144 124.549 25.3256 124.553 25.3377C124.557 25.3497 124.558 25.3624 124.557 25.3749C124.556 25.3874 124.552 25.3996 124.546 25.4105C121.863 30.2171 114.633 28.4861 114.336 22.9594C114.112 18.8087 117.991 15.8931 121.907 17.4814C124.114 18.3773 124.991 20.9258 124.751 23.1803C124.742 23.2673 124.693 23.3108 124.605 23.3108H117.074C117.057 23.3109 117.041 23.3148 117.025 23.3222C117.01 23.3295 116.997 23.3402 116.987 23.3534C116.976 23.3665 116.969 23.3819 116.965 23.3983C116.961 23.4147 116.961 23.4318 116.965 23.4482ZM117.128 21.1345C117.041 21.3097 117.096 21.3972 117.292 21.3972H122.081C122.102 21.3973 122.123 21.3924 122.142 21.383C122.16 21.3735 122.177 21.3598 122.19 21.3429C122.202 21.3261 122.211 21.3064 122.215 21.2857C122.218 21.2649 122.217 21.2435 122.211 21.2233C121.908 20.1934 121.174 19.515 120.091 19.3671C118.792 19.1897 117.804 19.7788 117.128 21.1345Z" fill="white"/>
<path d="M148.281 23.4395C148.786 26.1725 152.206 26.4543 153.698 24.365C153.738 24.3117 153.787 24.2995 153.846 24.3285L155.791 25.2696C155.853 25.2986 155.867 25.3432 155.835 25.4036C153.37 30.0118 146.335 28.6514 145.693 23.4361C145.3 20.2526 147.398 17.2291 150.705 17.0691C154.386 16.8899 156.395 19.6854 156.068 23.1751C156.064 23.2123 156.047 23.2468 156.02 23.272C155.992 23.2971 155.957 23.3109 155.92 23.3108H148.389C148.373 23.3108 148.357 23.3143 148.342 23.3211C148.328 23.328 148.315 23.3379 148.304 23.3502C148.294 23.3625 148.287 23.3769 148.283 23.3923C148.279 23.4078 148.278 23.4239 148.281 23.4395ZM148.447 21.1606C148.375 21.3184 148.425 21.3972 148.598 21.3972H153.392C153.416 21.3971 153.439 21.3914 153.461 21.3804C153.482 21.3695 153.5 21.3537 153.514 21.3343C153.527 21.3149 153.536 21.2925 153.54 21.2689C153.543 21.2454 153.541 21.2214 153.533 21.1989C152.608 18.5825 149.542 18.7756 148.447 21.1606Z" fill="white"/>
<path d="M171.411 23.3977C171.893 26.1533 175.335 26.4821 176.835 24.3632C176.872 24.3099 176.92 24.2977 176.979 24.3267L178.929 25.2783C178.992 25.3084 179.006 25.3542 178.973 25.4157C177.506 28.1573 174.078 28.9488 171.439 27.451C166.345 24.5598 169.001 16.1331 175.139 17.1195C178.143 17.6031 179.489 20.3639 179.197 23.1803C179.188 23.2673 179.14 23.3108 179.053 23.3108H171.484C171.473 23.3109 171.462 23.3133 171.452 23.318C171.442 23.3226 171.433 23.3293 171.426 23.3376C171.42 23.3459 171.414 23.3556 171.412 23.366C171.409 23.3764 171.409 23.3872 171.411 23.3977ZM171.562 21.1937C171.499 21.3293 171.543 21.3972 171.693 21.3972H176.529C176.552 21.3972 176.575 21.3915 176.596 21.3806C176.617 21.3697 176.635 21.3539 176.649 21.3345C176.663 21.3151 176.671 21.2927 176.675 21.2691C176.678 21.2455 176.676 21.2214 176.668 21.1989C175.73 18.5425 172.667 18.8017 171.562 21.1937Z" fill="white"/>
<path d="M196.806 23.3073C196.481 25.8622 195.124 27.4395 192.735 28.039C191.601 28.3232 190.491 28.2669 189.405 27.8703C184.742 26.1655 184.582 19.2157 189.198 17.45C193.276 15.8913 197.366 18.8956 196.806 23.3073ZM191.363 25.7567C191.74 25.756 192.113 25.6741 192.461 25.5156C192.809 25.3571 193.125 25.1251 193.391 24.8329C193.657 24.5407 193.868 24.194 194.011 23.8126C194.155 23.4312 194.228 23.0225 194.228 22.6099C194.227 22.1973 194.152 21.7889 194.007 21.408C193.862 21.0271 193.65 20.6811 193.383 20.3898C193.116 20.0986 192.799 19.8677 192.451 19.7104C192.102 19.5531 191.729 19.4725 191.352 19.4732C190.975 19.4738 190.602 19.5558 190.254 19.7143C189.906 19.8728 189.59 20.1047 189.324 20.3969C189.058 20.6891 188.847 21.0358 188.703 21.4173C188.56 21.7987 188.486 22.2074 188.487 22.6199C188.488 23.0325 188.563 23.4409 188.708 23.8219C188.852 24.2028 189.065 24.5487 189.332 24.84C189.599 25.1313 189.915 25.3622 190.264 25.5194C190.612 25.6767 190.986 25.7573 191.363 25.7567Z" fill="white"/>
<path d="M201.304 18.6573C202.071 17.6379 203.096 17.0813 204.39 17.0569C210.189 16.9438 211.239 25.6958 206.367 27.799C204.623 28.5523 202.44 28.2374 201.316 26.6126C201.309 26.6003 201.297 26.591 201.283 26.5863C201.269 26.5815 201.254 26.5816 201.241 26.5864C201.227 26.5912 201.215 26.6006 201.208 26.6129C201.2 26.6253 201.197 26.6399 201.198 26.6543C201.341 28.4287 201.392 30.206 201.351 31.9863C201.35 32.0389 201.328 32.0889 201.29 32.1256C201.253 32.1623 201.202 32.1828 201.149 32.1828H198.794C198.707 32.1828 198.664 32.1393 198.664 32.0524V17.5057C198.664 17.4327 198.7 17.3961 198.771 17.3961H201.056C201.143 17.3961 201.186 17.4396 201.186 17.5266V18.6173C201.186 18.6311 201.191 18.6444 201.199 18.6555C201.207 18.6667 201.218 18.675 201.231 18.6794C201.244 18.6838 201.258 18.684 201.271 18.6801C201.284 18.6761 201.296 18.6682 201.304 18.6573ZM203.989 25.7376C204.736 25.7376 205.454 25.4082 205.982 24.822C206.511 24.2357 206.808 23.4406 206.808 22.6115C206.808 21.7824 206.511 20.9873 205.982 20.401C205.454 19.8148 204.736 19.4854 203.989 19.4854C203.241 19.4854 202.523 19.8148 201.995 20.401C201.466 20.9873 201.169 21.7824 201.169 22.6115C201.169 23.4406 201.466 24.2357 201.995 24.822C202.523 25.4082 203.241 25.7376 203.989 25.7376Z" fill="white"/>
<path d="M213.508 23.3978C213.995 26.1516 217.434 26.4839 218.932 24.365C218.97 24.3105 219.019 24.2977 219.08 24.3267L221.054 25.2905C221.125 25.3253 221.139 25.3757 221.098 25.4418C219.996 27.2151 218.5 28.1278 216.611 28.18C208.668 28.4009 209.31 16.3454 216.797 17.0882C220.083 17.4135 221.599 20.0873 221.301 23.1769C221.298 23.2136 221.28 23.2477 221.253 23.2725C221.226 23.2973 221.19 23.311 221.153 23.3108H213.582C213.571 23.3107 213.561 23.3129 213.551 23.3174C213.541 23.3219 213.532 23.3285 213.525 23.3368C213.518 23.3451 213.512 23.3549 213.509 23.3654C213.506 23.3759 213.506 23.387 213.508 23.3978ZM213.661 21.1937C213.598 21.3294 213.642 21.3972 213.791 21.3972H218.627C218.651 21.3972 218.674 21.3916 218.695 21.3807C218.716 21.3698 218.734 21.3539 218.748 21.3345C218.761 21.3151 218.77 21.2927 218.773 21.2691C218.777 21.2455 218.774 21.2214 218.766 21.1989C217.829 18.5425 214.765 18.8017 213.661 21.1937Z" fill="white"/>
<path d="M225.964 18.7547C225.964 18.769 225.968 18.783 225.977 18.7946C225.986 18.8061 225.998 18.8146 226.011 18.8187C226.025 18.8228 226.039 18.8224 226.052 18.8174C226.065 18.8125 226.076 18.8033 226.084 18.7913C226.973 17.4083 228.697 16.5889 230.332 17.2761C230.385 17.2981 230.412 17.3381 230.412 17.3961V19.7463C230.412 19.8182 230.378 19.8443 230.309 19.8246C229.982 19.7318 229.656 19.6501 229.332 19.5793C227.371 19.1479 226.159 20.6005 226.155 22.4288C226.15 24.1997 226.147 25.973 226.146 27.7485C226.146 27.7711 226.137 27.7928 226.121 27.8088C226.105 27.8248 226.084 27.8338 226.061 27.8338H223.54C223.482 27.8338 223.453 27.8048 223.453 27.7468L223.452 17.5266C223.452 17.492 223.466 17.4588 223.49 17.4343C223.515 17.4098 223.549 17.3961 223.584 17.3961H225.892C225.953 17.3961 225.982 17.4263 225.981 17.4866L225.964 18.7547Z" fill="white"/>
<path d="M255.494 18.7843C256.479 17.2801 257.877 16.7606 259.688 17.2256C259.77 17.2477 259.811 17.301 259.811 17.3857V19.7463C259.811 19.8194 259.775 19.8472 259.703 19.8298C259.331 19.7376 258.898 19.5428 258.552 19.5167C256.264 19.341 255.572 20.8788 255.556 22.822C255.543 24.441 255.543 26.0646 255.554 27.6929C255.554 27.7302 255.54 27.7661 255.513 27.7925C255.487 27.8189 255.451 27.8338 255.414 27.8338H252.94C252.882 27.8338 252.853 27.8048 252.853 27.7468L252.851 17.5266C252.851 17.492 252.865 17.4588 252.89 17.4343C252.915 17.4099 252.948 17.3961 252.983 17.3961H255.245C255.332 17.3961 255.375 17.4396 255.375 17.5266V18.7495C255.375 18.7634 255.38 18.7768 255.388 18.7879C255.397 18.7989 255.408 18.807 255.421 18.8109C255.435 18.8148 255.449 18.8144 255.462 18.8096C255.475 18.8048 255.486 18.7959 255.494 18.7843Z" fill="white"/>
<path d="M271.3 23.3108C270.519 30.4919 259.498 29.429 260.316 21.9504C261.106 14.7345 272.119 15.7748 271.3 23.3108ZM265.818 25.7567C266.195 25.756 266.568 25.6741 266.916 25.5156C267.264 25.3571 267.58 25.1252 267.846 24.833C268.113 24.5408 268.323 24.194 268.467 23.8126C268.61 23.4312 268.684 23.0225 268.683 22.6099C268.683 22.1974 268.608 21.789 268.463 21.408C268.318 21.0271 268.106 20.6811 267.839 20.3899C267.572 20.0986 267.255 19.8677 266.906 19.7104C266.558 19.5532 266.184 19.4726 265.807 19.4732C265.431 19.4739 265.057 19.5558 264.709 19.7143C264.361 19.8728 264.045 20.1047 263.779 20.3969C263.513 20.6891 263.303 21.0359 263.159 21.4173C263.015 21.7987 262.942 22.2074 262.943 22.62C262.943 23.0325 263.018 23.4409 263.163 23.8219C263.308 24.2028 263.52 24.5488 263.787 24.84C264.054 25.1313 264.371 25.3622 264.72 25.5195C265.068 25.6767 265.441 25.7573 265.818 25.7567Z" fill="white"/>
<path d="M287.928 18.6556C289.638 16.4359 292.709 16.615 294.596 18.5321C297.197 21.1728 296.399 26.7326 292.57 27.9712C290.896 28.5122 288.995 28.0773 287.939 26.6143C287.931 26.6035 287.921 26.5954 287.908 26.5914C287.896 26.5873 287.882 26.5875 287.87 26.5918C287.858 26.5962 287.847 26.6045 287.84 26.6155C287.833 26.6265 287.83 26.6396 287.831 26.6526C287.974 28.4282 288.024 30.2061 287.982 31.9863C287.981 32.0387 287.96 32.0887 287.923 32.1255C287.885 32.1622 287.835 32.1828 287.782 32.1828H285.406C285.333 32.1828 285.296 32.1463 285.296 32.0732V17.4831C285.296 17.46 285.306 17.4379 285.322 17.4216C285.338 17.4053 285.36 17.3961 285.383 17.3961H287.688C287.775 17.3961 287.819 17.4396 287.819 17.5266V18.6191C287.819 18.6319 287.823 18.6443 287.83 18.6547C287.838 18.665 287.848 18.6728 287.86 18.6768C287.873 18.6809 287.886 18.681 287.898 18.6772C287.91 18.6734 287.921 18.6658 287.928 18.6556ZM290.623 25.7376C291.371 25.7376 292.089 25.4082 292.618 24.822C293.147 24.2357 293.445 23.4406 293.445 22.6115C293.445 21.7824 293.147 20.9873 292.618 20.401C292.089 19.8148 291.371 19.4854 290.623 19.4854C289.875 19.4854 289.157 19.8148 288.628 20.401C288.099 20.9873 287.801 21.7824 287.801 22.6115C287.801 23.4406 288.099 24.2357 288.628 24.822C289.157 25.4082 289.875 25.7376 290.623 25.7376Z" fill="white"/>
<path d="M300.301 19.7881C299.927 20.4491 300.939 21.0093 301.508 21.1485C303.107 21.5399 304.822 21.8426 305.723 23.0725C306.305 23.8692 306.432 24.7518 306.104 25.7202C305.335 27.9886 302.291 28.4861 300.25 28.0269C298.819 27.7068 297.799 26.8857 297.19 25.5636C297.161 25.501 297.179 25.4557 297.243 25.4279L299.417 24.4763C299.477 24.4497 299.524 24.4647 299.558 24.5216C300.292 25.7683 301.396 26.1777 302.868 25.7497C303.877 25.4575 303.728 24.2745 302.809 23.951C302.232 23.748 301.409 23.5219 300.343 23.2725C297.634 22.641 296.357 19.0992 299.274 17.6083C301.362 16.542 304.692 16.8881 305.927 19.1409C305.963 19.2071 305.946 19.2546 305.878 19.2836L303.796 20.1899C303.743 20.2131 303.7 20.2021 303.665 20.1569C302.87 19.1305 301.851 18.8788 300.609 19.4019C300.531 19.4344 300.428 19.5631 300.301 19.7881Z" fill="white"/>
<path d="M165.251 17.3961H168.057C168.072 17.396 168.088 17.3997 168.101 17.407C168.115 17.4142 168.126 17.4246 168.135 17.4374C168.143 17.4502 168.148 17.4649 168.15 17.4801C168.151 17.4954 168.148 17.5108 168.142 17.5249L163.779 27.7781C163.772 27.7947 163.76 27.8089 163.745 27.8188C163.73 27.8287 163.712 27.8339 163.694 27.8338H161.158C161.14 27.8339 161.122 27.8287 161.107 27.8188C161.092 27.8089 161.08 27.7947 161.073 27.7781L156.753 17.5249C156.747 17.5108 156.745 17.4954 156.746 17.4801C156.747 17.4649 156.752 17.4502 156.761 17.4374C156.769 17.4246 156.781 17.4142 156.794 17.407C156.808 17.3997 156.823 17.396 156.838 17.3961H159.686C159.705 17.3963 159.723 17.402 159.738 17.4126C159.753 17.4231 159.765 17.438 159.771 17.4553L162.362 24.1215C162.368 24.1389 162.38 24.1539 162.396 24.1645C162.411 24.175 162.429 24.1807 162.448 24.1807C162.466 24.1807 162.485 24.175 162.5 24.1645C162.515 24.1539 162.527 24.1389 162.534 24.1215L165.166 17.4553C165.173 17.438 165.184 17.4231 165.199 17.4126C165.215 17.402 165.233 17.3963 165.251 17.3961Z" fill="white"/>
<path d="M280.145 26.5726C279.28 27.6453 278.207 28.1806 276.925 28.1782C274.224 28.1748 273.133 26.209 273.124 23.7596C273.116 21.6709 273.115 19.577 273.121 17.4779C273.121 17.4562 273.129 17.4354 273.145 17.4201C273.16 17.4047 273.181 17.3961 273.203 17.3961H275.727C275.745 17.3961 275.762 17.4033 275.775 17.416C275.787 17.4287 275.795 17.446 275.795 17.464C275.817 19.4703 275.824 21.4755 275.817 23.4795C275.807 26.6039 279.349 26.3116 280.001 23.7561C280.074 23.4685 280.112 23.0162 280.116 22.3992C280.125 20.7559 280.126 19.1091 280.118 17.4587C280.118 17.4421 280.124 17.4262 280.136 17.4145C280.148 17.4027 280.164 17.3961 280.18 17.3961H282.725C282.75 17.3961 282.773 17.4058 282.79 17.4231C282.808 17.4404 282.817 17.4639 282.817 17.4883V27.7033C282.817 27.7379 282.804 27.7711 282.779 27.7956C282.755 27.82 282.722 27.8338 282.687 27.8338H280.382C280.325 27.8338 280.296 27.8048 280.295 27.7468L280.293 26.6248C280.293 26.4682 280.244 26.4508 280.145 26.5726Z" fill="white"/>
<path d="M60.093 46.1536C61.3119 46.5294 62.3673 46.2047 63.2591 45.1795C63.3125 45.118 63.3687 45.1157 63.4279 45.1725L64.3968 46.0962C64.5302 46.2226 64.5279 46.3473 64.3899 46.4702C63.1513 47.5627 61.8779 48.0777 60.2026 47.8028C56.6573 47.2218 55.0569 43.1563 57.1966 40.2824C58.884 38.0157 62.2554 37.8505 64.249 39.8128C64.3035 39.8673 64.3035 39.9218 64.249 39.9763L63.2261 40.9974C63.1751 41.0485 63.1246 41.0485 63.0747 40.9974C62.2652 40.1578 61.3038 39.8736 60.1905 40.145C57.2523 40.8617 57.1844 45.2577 60.093 46.1536Z" fill="white"/>
<path d="M106.134 43.0432C107.035 43.3981 107.607 44.1339 107.621 45.1203C107.666 48.3595 103.037 47.6636 101.129 47.6654C101.103 47.6654 101.077 47.6551 101.059 47.6368C101.04 47.6185 101.03 47.5938 101.03 47.5679L101.026 38.7481C101.026 38.7147 101.04 38.6827 101.063 38.6589C101.087 38.6351 101.12 38.6216 101.153 38.6211C102.43 38.6141 104.439 38.4141 105.574 38.7812C107.541 39.4213 107.962 41.7889 106.125 42.9319C106.115 42.9379 106.107 42.9465 106.102 42.9568C106.097 42.9671 106.094 42.9787 106.095 42.9902C106.096 43.0017 106.1 43.0128 106.107 43.0221C106.114 43.0315 106.123 43.0388 106.134 43.0432ZM102.716 40.3311L102.719 42.3073C102.719 42.347 102.735 42.3851 102.763 42.4131C102.791 42.4412 102.829 42.457 102.869 42.457L104.493 42.4552C104.798 42.4547 105.09 42.3377 105.305 42.1299C105.52 41.9221 105.64 41.6405 105.64 41.3471V41.2845C105.64 41.1392 105.61 40.9953 105.552 40.8612C105.494 40.727 105.409 40.6052 105.302 40.5026C105.196 40.4 105.069 40.3187 104.929 40.2633C104.79 40.2079 104.641 40.1796 104.49 40.1798L102.865 40.1815C102.845 40.1815 102.826 40.1854 102.808 40.1929C102.79 40.2004 102.773 40.2115 102.759 40.2254C102.745 40.2393 102.734 40.2557 102.727 40.2739C102.719 40.292 102.716 40.3115 102.716 40.3311ZM102.717 44.0069L102.71 45.931C102.71 45.9543 102.715 45.9773 102.724 45.9989C102.733 46.0204 102.746 46.04 102.762 46.0564C102.779 46.0729 102.798 46.086 102.82 46.0949C102.841 46.1038 102.864 46.1084 102.888 46.1084L104.704 46.1154C104.861 46.1159 105.017 46.0891 105.162 46.0365C105.308 45.9838 105.44 45.9065 105.551 45.8087C105.663 45.711 105.751 45.5948 105.812 45.4668C105.873 45.3389 105.904 45.2016 105.904 45.0629V44.8959C105.905 44.6159 105.78 44.3471 105.556 44.1484C105.332 43.9497 105.028 43.8375 104.711 43.8365L102.895 43.8295C102.848 43.8295 102.803 43.8482 102.769 43.8815C102.736 43.9148 102.717 43.9599 102.717 44.0069Z" fill="white"/>
<path d="M67.2204 38.6629H65.773C65.7164 38.6629 65.6704 38.7088 65.6704 38.7655V47.5645C65.6704 47.6212 65.7164 47.6671 65.773 47.6671H67.2204C67.2771 47.6671 67.323 47.6212 67.323 47.5645V38.7655C67.323 38.7088 67.2771 38.6629 67.2204 38.6629Z" fill="white"/>
<path d="M88.5934 46.9312C87.4088 48.5386 85.1542 47.9559 84.1644 46.4824C83.0545 44.8315 83.5973 41.9525 85.6813 41.2375C86.8138 40.8496 87.8959 41.0653 88.6248 42.0377C88.6286 42.0435 88.6341 42.0478 88.6407 42.0501C88.6472 42.0523 88.6543 42.0524 88.6608 42.0502C88.6674 42.048 88.673 42.0437 88.6769 42.038C88.6807 42.0323 88.6826 42.0255 88.6822 42.0186L88.6143 38.8055C88.612 38.7104 88.6584 38.6629 88.7535 38.6629H90.1991C90.2571 38.6629 90.2861 38.6919 90.2861 38.7499V47.5349C90.2861 47.6219 90.2426 47.6654 90.1556 47.6654H88.8509C88.7639 47.6654 88.7204 47.6219 88.7204 47.5349V46.973C88.7204 46.8315 88.6781 46.8176 88.5934 46.9312ZM87.0128 46.3623C87.476 46.3574 87.9182 46.153 88.242 45.794C88.5658 45.435 88.7447 44.9508 88.7395 44.4479C88.7342 43.9451 88.5452 43.4647 88.2139 43.1126C87.8827 42.7604 87.4363 42.5653 86.9731 42.5701C86.51 42.575 86.0678 42.7794 85.744 43.1384C85.4202 43.4974 85.2413 43.9816 85.2465 44.4845C85.2518 44.9874 85.4408 45.4677 85.7721 45.8199C86.1033 46.172 86.5497 46.3671 87.0128 46.3623Z" fill="white"/>
<path d="M110.459 42.0603C111.953 40.2216 114.79 40.9748 114.834 43.4851C114.862 45.0925 114.868 46.4476 114.853 47.5506C114.853 47.6271 114.815 47.6654 114.738 47.6654H113.326C113.247 47.6654 113.207 47.6259 113.206 47.5471C113.206 46.3038 113.204 45.0687 113.202 43.8417C113.2 42.2587 111.337 42.196 110.688 43.452C110.241 44.3184 110.464 46.5311 110.457 47.5523C110.457 47.6277 110.419 47.6654 110.344 47.6654H108.943C108.856 47.6654 108.813 47.6219 108.813 47.5349V38.7933C108.813 38.7064 108.856 38.6629 108.943 38.6629H110.366C110.445 38.6629 110.484 38.7023 110.483 38.7812L110.422 42.0482C110.422 42.0523 110.424 42.0562 110.426 42.0594C110.429 42.0627 110.432 42.0651 110.436 42.0664C110.44 42.0677 110.444 42.0678 110.448 42.0667C110.452 42.0657 110.456 42.0634 110.459 42.0603Z" fill="white"/>
<path d="M125.511 42.029C125.511 42.0358 125.513 42.0426 125.516 42.0484C125.52 42.0542 125.525 42.0588 125.531 42.0615C125.538 42.0641 125.544 42.0648 125.551 42.0634C125.557 42.0619 125.563 42.0584 125.567 42.0534C126.389 41.0757 127.418 40.8125 128.653 41.2636C131.2 42.1908 131.306 46.3902 128.855 47.5871C127.74 48.1316 126.424 47.9524 125.624 46.9295C125.55 46.8344 125.513 46.8472 125.513 46.9678V47.5558C125.513 47.6288 125.476 47.6654 125.403 47.6654H124.078C123.991 47.6654 123.947 47.6219 123.947 47.5349V38.7725C123.947 38.6994 123.983 38.6629 124.055 38.6629H125.475C125.542 38.6629 125.577 38.6965 125.581 38.7638C125.638 39.8551 125.614 40.9435 125.511 42.029ZM127.246 46.3589C127.476 46.3601 127.703 46.3123 127.916 46.2182C128.129 46.1241 128.322 45.9856 128.485 45.8105C128.648 45.6354 128.778 45.4273 128.867 45.1979C128.956 44.9685 129.003 44.7224 129.004 44.4736C129.006 44.2249 128.962 43.9783 128.875 43.748C128.788 43.5177 128.661 43.3082 128.499 43.1314C128.338 42.9546 128.146 42.8141 127.934 42.7178C127.723 42.6214 127.496 42.5713 127.266 42.5701C127.036 42.5689 126.809 42.6167 126.596 42.7108C126.384 42.8049 126.19 42.9434 126.027 43.1184C125.864 43.2935 125.734 43.5017 125.645 43.7311C125.556 43.9604 125.509 44.2065 125.508 44.4553C125.506 44.7041 125.55 44.9507 125.637 45.181C125.724 45.4113 125.851 45.6208 126.013 45.7976C126.174 45.9743 126.366 46.1149 126.578 46.2112C126.789 46.3075 127.017 46.3577 127.246 46.3589Z" fill="white"/>
<path d="M75.3167 44.4697C75.3167 45.38 74.955 46.253 74.3114 46.8967C73.6677 47.5403 72.7947 47.902 71.8844 47.902C70.9741 47.902 70.1011 47.5403 69.4574 46.8967C68.8138 46.253 68.4521 45.38 68.4521 44.4697C68.4521 43.5594 68.8138 42.6864 69.4574 42.0427C70.1011 41.3991 70.9741 41.0374 71.8844 41.0374C72.7947 41.0374 73.6677 41.3991 74.3114 42.0427C74.955 42.6864 75.3167 43.5594 75.3167 44.4697ZM71.8727 46.3728C72.1062 46.374 72.3376 46.326 72.5538 46.2315C72.77 46.137 72.9667 45.9979 73.1328 45.822C73.2988 45.6461 73.4308 45.437 73.5214 45.2066C73.6119 44.9762 73.6592 44.7289 73.6605 44.479C73.6618 44.2291 73.6172 43.9814 73.529 43.75C73.4409 43.5186 73.311 43.3082 73.1469 43.1306C72.9827 42.953 72.7874 42.8118 72.5722 42.715C72.357 42.6182 72.1261 42.5678 71.8926 42.5666C71.6592 42.5654 71.4277 42.6134 71.2115 42.7079C70.9953 42.8024 70.7986 42.9416 70.6326 43.1174C70.4666 43.2933 70.3345 43.5024 70.2439 43.7328C70.1534 43.9632 70.1061 44.2105 70.1048 44.4604C70.1035 44.7103 70.1482 44.958 70.2363 45.1894C70.3245 45.4208 70.4543 45.6312 70.6185 45.8088C70.7826 45.9864 70.9779 46.1276 71.1931 46.2244C71.4083 46.3212 71.6392 46.3716 71.8727 46.3728Z" fill="white"/>
<path d="M135.742 47.0495C133.007 49.7825 129.61 45.136 132.962 43.7217C133.829 43.3563 134.757 43.3726 135.747 43.7704C135.809 43.7947 135.844 43.7744 135.854 43.7095C135.939 43.1546 135.662 42.7579 135.132 42.5753C134.294 42.2876 133.549 42.4744 132.896 43.1354C132.849 43.1841 132.798 43.187 132.745 43.1441L131.87 42.4257C131.809 42.3758 131.806 42.3224 131.859 42.2656C133.014 41.0444 134.384 40.7232 135.967 41.3019C137.243 41.7663 137.456 42.7788 137.468 44.1131C137.478 45.2577 137.478 46.4036 137.468 47.5506C137.468 47.6271 137.429 47.6654 137.351 47.6654H135.974C135.9 47.6654 135.864 47.6288 135.864 47.5558V47.1017C135.864 46.9858 135.823 46.9684 135.742 47.0495ZM135.767 44.9655C135.034 44.7063 133.698 44.3897 133.312 45.3378C132.675 46.9052 135.702 47.2496 135.854 45.0977C135.858 45.0316 135.829 44.9875 135.767 44.9655Z" fill="white"/>
<path d="M140.597 42.0082C142.095 40.2946 144.821 40.9644 144.891 43.3946C144.921 44.4593 144.924 45.8457 144.901 47.554C144.9 47.6283 144.862 47.6654 144.788 47.6654H143.377C143.297 47.6654 143.257 47.6254 143.257 47.5453C143.257 46.4088 143.257 45.2786 143.255 44.1548C143.252 41.742 140.688 42.3126 140.582 44.1792C140.552 44.7046 140.547 45.8318 140.57 47.561C140.57 47.6306 140.535 47.6654 140.465 47.6654H139.039C138.952 47.6654 138.908 47.6219 138.908 47.5349V41.3819C138.908 41.3088 138.944 41.2723 139.016 41.2723H140.364C140.437 41.2723 140.474 41.3082 140.474 41.3802V41.9612C140.474 42.0864 140.515 42.1021 140.597 42.0082Z" fill="white"/>
<path d="M147.872 44.9916C148.236 46.6407 150.231 46.9921 151.167 45.6231C151.201 45.5744 151.244 45.5628 151.296 45.5883L152.435 46.1432C152.452 46.1514 152.468 46.1633 152.48 46.1781C152.492 46.1929 152.5 46.2103 152.505 46.2289C152.509 46.2475 152.51 46.267 152.506 46.2859C152.502 46.3047 152.494 46.3226 152.482 46.338C151.747 47.318 150.827 47.8196 149.723 47.8428C145.962 47.9246 144.957 42.9458 148.098 41.3749C149.146 40.8513 150.497 40.9592 151.442 41.6707C152.396 42.3885 152.788 43.4311 152.616 44.7985C152.609 44.8541 152.578 44.882 152.522 44.882H147.959C147.885 44.882 147.856 44.9185 147.872 44.9916ZM147.996 43.6747L151.058 43.6677C151.065 43.6677 151.073 43.6646 151.078 43.6591C151.084 43.6535 151.087 43.646 151.087 43.6382V43.6329C151.087 43.4785 151.046 43.3256 150.969 43.1831C150.891 43.0406 150.777 42.9112 150.634 42.8023C150.491 42.6934 150.321 42.6072 150.134 42.5485C149.947 42.4899 149.746 42.4599 149.544 42.4604H149.502C149.094 42.4614 148.703 42.5863 148.415 42.8074C148.127 43.0286 147.965 43.3281 147.966 43.6399V43.6451C147.966 43.653 147.969 43.6605 147.975 43.666C147.98 43.6716 147.988 43.6747 147.996 43.6747Z" fill="white"/>
<path d="M155.349 42.8797C155.272 43.6312 156.72 43.7286 157.245 43.8921C157.803 44.0649 158.209 44.2696 158.465 44.5062C159.296 45.2734 159.159 46.5781 158.233 47.2287C156.756 48.2655 154.38 48.0498 153.455 46.2911C153.447 46.2774 153.443 46.2625 153.442 46.2472C153.441 46.2319 153.443 46.2166 153.448 46.2022C153.453 46.1878 153.461 46.1747 153.472 46.1636C153.482 46.1526 153.495 46.1438 153.508 46.138L154.751 45.5952C154.824 45.5627 154.883 45.5796 154.928 45.6457C156.191 47.4775 158.372 45.7013 156.847 45.2316C156.081 44.995 155.069 44.8489 154.512 44.4418C153.298 43.5494 153.515 41.9281 154.886 41.3366C156.222 40.7608 158.058 41.0183 158.802 42.4117C158.836 42.4743 158.82 42.5202 158.755 42.5491L157.572 43.0658C157.507 43.0948 157.452 43.0815 157.407 43.0258C156.925 42.4285 156.31 42.2841 155.563 42.5926C155.505 42.6162 155.454 42.6554 155.416 42.7059C155.379 42.7565 155.355 42.8166 155.349 42.8797Z" fill="white"/>
<path d="M174.352 47.046C173.602 47.8161 172.717 48.0359 171.698 47.7054C169.786 47.0861 169.723 44.4592 171.581 43.7199C172.473 43.3662 173.402 43.3818 174.368 43.7669C174.43 43.7912 174.465 43.7709 174.474 43.706C174.556 43.1528 174.278 42.7527 173.749 42.5752C172.903 42.2911 172.155 42.4819 171.503 43.1476C171.466 43.1847 171.426 43.1864 171.385 43.1528L170.473 42.4152C170.424 42.3769 170.421 42.334 170.463 42.2865C171.382 41.2462 172.562 40.8646 174.003 41.1418C175.737 41.4758 176.083 42.5404 176.09 44.2087C176.095 45.3221 176.095 46.4354 176.09 47.5488C176.089 47.6265 176.05 47.6653 175.972 47.6653H174.593C174.519 47.6653 174.483 47.6288 174.483 47.5557V47.1C174.483 46.9747 174.439 46.9567 174.352 47.046ZM174.391 44.9672C173.658 44.7045 172.348 44.4036 171.933 45.3029C171.223 46.8338 174.306 47.3139 174.479 45.1046C174.485 45.0362 174.456 44.9904 174.391 44.9672Z" fill="white"/>
<path d="M179.241 42.0864C179.24 42.1009 179.244 42.1152 179.253 42.1271C179.261 42.139 179.273 42.1478 179.287 42.1522C179.301 42.1565 179.316 42.1562 179.329 42.1512C179.343 42.1463 179.355 42.1369 179.363 42.1247C179.964 41.2178 180.813 40.8919 181.908 41.147C181.974 41.1633 182.007 41.205 182.007 41.2723V42.704C182.007 42.7759 181.971 42.8049 181.901 42.791C180.919 42.6031 180.032 42.4413 179.549 43.5372C179.152 44.4366 179.352 46.4807 179.354 47.5731C179.354 47.6346 179.323 47.6653 179.262 47.6653H177.788C177.765 47.6653 177.743 47.6562 177.727 47.6399C177.71 47.6236 177.701 47.6014 177.701 47.5784V41.3593C177.701 41.3013 177.73 41.2723 177.788 41.2723H179.187C179.249 41.2723 179.28 41.3036 179.277 41.3662L179.241 42.0864Z" fill="white"/>
<path d="M162.536 45.3534C162.539 45.3662 162.546 45.3775 162.556 45.3855C162.567 45.3936 162.58 45.3981 162.593 45.3983C162.606 45.3985 162.619 45.3944 162.63 45.3866C162.641 45.3788 162.649 45.3678 162.654 45.3551L163.88 41.3488C163.901 41.2781 163.949 41.2404 164.025 41.2357C164.282 41.2236 165.583 41.1227 165.665 41.3975C166.206 43.2206 166.6 44.5381 166.85 45.3499C166.896 45.5042 166.94 45.5036 166.982 45.3482L168.038 41.3262C168.055 41.2613 168.098 41.2288 168.165 41.2288H169.758C169.837 41.2288 169.865 41.2671 169.842 41.3436L167.878 47.5575C167.868 47.5889 167.848 47.6162 167.822 47.6356C167.795 47.655 167.763 47.6654 167.73 47.6653H166.171C166.106 47.6653 166.064 47.6346 166.044 47.5731L164.78 43.5459C164.776 43.5349 164.768 43.5252 164.759 43.5184C164.749 43.5115 164.738 43.5078 164.726 43.5078C164.715 43.5078 164.703 43.5115 164.694 43.5184C164.685 43.5252 164.678 43.5349 164.675 43.5459L163.43 47.5558C163.406 47.6288 163.357 47.6653 163.282 47.6653H161.735C161.672 47.6653 161.63 47.6346 161.61 47.5731L159.646 41.3471C159.622 41.2682 159.651 41.2288 159.733 41.2288H161.351C161.419 41.2288 161.462 41.2613 161.478 41.3262L162.536 45.3534Z" fill="white"/>
<path d="M81.0328 46.8982C81.0328 46.8885 81.0298 46.879 81.0242 46.871C81.0186 46.8631 81.0107 46.8571 81.0015 46.8539C80.9924 46.8506 80.9824 46.8503 80.9731 46.8529C80.9637 46.8556 80.9554 46.8611 80.9493 46.8686C79.3593 48.763 76.6368 47.9315 76.609 45.3691C76.5881 43.5274 76.5806 42.2012 76.5864 41.3906C76.5875 41.3117 76.6275 41.2723 76.7064 41.2723H78.119C78.199 41.2723 78.239 41.3123 78.239 41.3923C78.2378 42.6344 78.239 43.8689 78.2425 45.0959C78.2494 47.0443 80.8588 46.632 80.9232 44.6576C80.9406 44.1218 80.9435 43.027 80.9319 41.3732C80.9308 41.3059 80.9638 41.2723 81.0311 41.2723H82.4576C82.5445 41.2723 82.588 41.3158 82.588 41.4027V47.5505C82.588 47.6259 82.5503 47.6636 82.475 47.6636L81.1285 47.6654C81.0543 47.6654 81.0177 47.6282 81.0189 47.554L81.0328 46.8982Z" fill="white"/>
<path d="M120.753 46.9051C119.167 48.7752 116.476 47.895 116.446 45.3673C116.424 43.5489 116.416 42.2233 116.423 41.3906C116.425 41.3117 116.465 41.2723 116.543 41.2723H117.956C118.036 41.2723 118.076 41.3123 118.076 41.3923C118.075 42.6344 118.076 43.8689 118.08 45.0959C118.085 47.0165 120.651 46.6198 120.755 44.7602C120.781 44.2986 120.784 43.1708 120.765 41.3767C120.764 41.3071 120.799 41.2723 120.868 41.2723H122.295C122.382 41.2723 122.425 41.3158 122.425 41.4027V47.5575C122.425 47.6294 122.389 47.6654 122.317 47.6654H120.985C120.894 47.6654 120.851 47.6201 120.854 47.5297L120.875 46.9521C120.88 46.8199 120.839 46.8042 120.753 46.9051Z" fill="white"/>
<path d="M95.7933 45.343C96.464 45.343 97.0076 44.7993 97.0076 44.1287C97.0076 43.4581 96.464 42.9145 95.7933 42.9145C95.1227 42.9145 94.5791 43.4581 94.5791 44.1287C94.5791 44.7993 95.1227 45.343 95.7933 45.343Z" fill="white"/>
<path d="M9.72448 17.7423C8.81814 17.1787 8.19536 17.0517 7.13941 16.9543C7.12163 16.9522 7.10486 16.9446 7.09149 16.9326C7.07812 16.9206 7.06885 16.9048 7.06499 16.8875C7.06113 16.8701 7.06288 16.8521 7.07 16.8359C7.07712 16.8198 7.08924 16.8064 7.10462 16.7977C10.752 14.7125 14.3286 12.6522 17.8345 10.6169C20.5205 9.05819 23.8345 11.384 22.8759 14.4458C22.5193 15.5904 21.813 16.1175 20.7014 16.7542C18.6011 17.958 16.5066 19.1729 14.4179 20.3987C14.3681 20.4289 14.3176 20.4289 14.2666 20.3987C12.7566 19.5115 11.2101 18.6713 9.72448 17.7423Z" fill="#FF5145"/>
<path d="M41.9734 23.1229C38.0941 20.9449 34.2304 18.713 30.3963 16.455C28.5958 15.3938 27.9626 13.3063 29.1542 11.5667C29.9127 10.4638 31.3948 9.80098 32.7239 10.1385C33.037 10.2185 33.5508 10.4632 34.2652 10.8726C37.7479 12.8708 41.2248 14.8807 44.6959 16.9021C46.2615 17.8136 47.3366 18.3442 47.6637 19.9168C48.1229 22.1244 46.1311 24.3128 43.8609 23.9266C43.426 23.8524 42.7968 23.5845 41.9734 23.1229Z" fill="#38A852"/>
<path d="M17.77 30.5511C13.9237 28.3383 10.1018 26.0872 6.24508 23.8936C5.6884 23.5758 5.28307 23.3009 5.02909 23.069C1.94302 20.2386 5.62752 15.5956 9.2059 17.8032C13.0156 20.1517 17.0185 22.2879 20.9013 24.5285C22.4096 25.3983 23.382 26.6474 22.9541 28.4513C22.38 30.8764 19.9289 31.7949 17.77 30.5511Z" fill="#428EFF"/>
<path d="M37.3424 20.8162C37.7912 21.0615 41.4479 23.2795 41.5349 23.2673C41.5952 23.2581 41.6485 23.2726 41.6949 23.3108C42.5369 23.98 43.4977 24.2891 44.5774 24.238C44.5864 24.2381 44.595 24.2411 44.6022 24.2465C44.6093 24.2519 44.6145 24.2594 44.617 24.268C44.6195 24.2765 44.6193 24.2857 44.6162 24.2941C44.6132 24.3025 44.6075 24.3097 44.6001 24.3146C40.8402 26.4961 37.078 28.6625 33.3134 30.8138C31.9322 31.6036 30.0813 30.826 29.2915 29.777C28.0302 28.0982 28.4652 25.9359 30.2691 24.8295C31.4068 24.1325 33.7147 22.7953 37.1928 20.818C37.2415 20.789 37.2914 20.7884 37.3424 20.8162Z" fill="#FFBB01"/>
</svg>
