<svg width="157" height="21" viewBox="0 0 157 21" fill="none" xmlns="http://www.w3.org/2000/svg">
<path d="M36.3527 12.1811C39.3074 10.7796 41.9999 9.40651 44.7464 8.20741C50.8235 5.55242 56.9907 3.31476 63.5602 4.6021C65.4677 4.97541 67.3922 5.59754 69.1453 6.50275C73.7933 8.89324 78.2804 7.75704 82.7815 5.75944C88.8111 3.0794 94.9267 1.94045 101.166 4.1697C106.966 6.24326 112.593 5.10018 118.269 3.04901C121.355 1.93394 124.53 1.10176 127.709 0.446658C132.229 -0.481872 135.331 2.57551 138.552 5.46576C139.712 6.50687 141.572 7.23691 143.019 7.03564C147.526 6.41716 151.987 5.29301 156.81 4.29001C152.037 9.97014 146.631 13.0541 140.025 11.8275C138.098 11.4667 136.152 9.88137 134.69 8.28563C132.449 5.84214 129.992 5.14165 127.08 5.9315C123.061 7.02771 119.032 8.08782 115.067 9.42179C110.148 11.0745 105.379 10.6467 100.6 9.10817C95.188 7.36292 89.8665 8.02166 84.6425 10.4628C79.1353 13.0366 73.7294 14.1268 68.0208 11.1487C62.7873 8.42098 57.2558 8.38404 51.743 11.0281C47.1253 13.2425 42.4587 15.2974 37.831 17.4827C36.1642 18.2671 34.4376 19.1032 32.9318 17.5888C31.5238 16.1671 31.0452 14.2761 31.5903 11.973C32.5261 8.05414 31.848 7.40548 28.3709 7.91632C22.1991 8.83155 16.8788 12.2335 11.5006 15.5105C9.21516 16.9024 6.98721 18.4262 4.65052 19.6867C3.8347 20.1298 2.67311 20.2551 1.84307 19.9547C1.13936 19.6999 0.276084 18.6616 0.221092 17.8865C0.164966 17.1255 0.880009 15.8612 1.54085 15.4975C7.5427 12.1648 13.5652 8.88327 19.6635 5.81287C22.0773 4.59396 24.6664 3.5801 27.2526 3.13867C33.8183 2.02196 36.2031 4.45581 36.3393 12.1941L36.3527 12.1811Z" fill="#FF5145"/>
</svg>
