<svg width="395" height="142" viewBox="0 0 395 142" fill="none" xmlns="http://www.w3.org/2000/svg">
<path d="M84.9201 27.5493L67.0347 37.8774C62.8269 40.308 61.3819 45.6918 63.8124 49.9051C66.243 54.1185 71.6214 55.558 75.8347 53.1274L106.738 35.2752L84.9201 27.5469V27.5493Z" fill="#FFBB01" stroke="#202124" stroke-width="0.741781" stroke-miterlimit="10"/>
<path d="M71.4441 1C69.8973 0.99908 68.3775 1.40601 67.0381 2.17976C65.6987 2.95351 64.587 4.06673 63.8151 5.40717C61.3845 9.62049 62.8241 15.0043 67.0369 17.4344L97.941 35.2866C102.154 37.7172 107.533 36.2776 109.963 32.0643C112.393 27.8515 110.954 22.4672 106.741 20.0366L75.8369 2.18438C74.5026 1.40934 72.9871 1.00076 71.4441 1Z" fill="#38A852" stroke="#202124" stroke-width="0.741781" stroke-miterlimit="10"/>
<path d="M40.6978 1C39.2029 1 37.6916 1.38177 36.3045 2.18487L5.40088 20.0366L26.9427 27.9286L45.1045 17.4344C49.3124 15.0043 50.7573 9.62 48.3268 5.40668C46.6988 2.58296 43.7396 1 40.6978 1Z" fill="#FF5145" stroke="#202124" stroke-width="0.741781" stroke-miterlimit="10"/>
<path d="M9.81027 18.8496C6.77095 18.8496 3.81173 20.4247 2.1813 23.2568C-0.249271 27.4696 1.19028 32.8539 5.4036 35.284L36.3072 53.1362C40.5146 55.5668 45.8989 54.1272 48.3295 49.9139C50.7601 45.7011 49.3205 40.3168 45.1072 37.8862L14.1977 20.0345C12.8658 19.2582 11.3518 18.8493 9.81027 18.8496Z" fill="#428EFF" stroke="#202124" stroke-width="0.741781" stroke-miterlimit="10"/>
<path d="M19.9521 100.775H13.2768C13.095 100.775 13.0042 100.684 13.0042 100.502V97.4358C13.0042 97.2996 13.0723 97.2314 13.2086 97.2314H24.0381C24.0949 97.2316 24.1497 97.2524 24.1924 97.29C24.235 97.3277 24.2625 97.3795 24.2697 97.4358C26.1287 111.059 8.45216 114.916 2.55633 104.237C-1.76673 96.4 3.38496 87.0016 12.2328 86.3747C15.9653 86.1112 19.1353 87.2624 21.743 89.8282C21.812 89.8955 21.8111 89.9627 21.7402 90.0299L18.9382 92.7448C18.8546 92.8266 18.7728 92.8266 18.6928 92.7448C14.3398 88.3809 7.19013 90.3925 5.63917 96.2092C3.93284 102.604 9.83411 107.87 15.9834 105.73C18.2222 104.953 19.5905 103.357 20.0884 100.944C20.112 100.831 20.0666 100.775 19.9521 100.775Z" fill="white"/>
<path d="M303.862 100.952C303.867 100.93 303.866 100.908 303.861 100.887C303.856 100.866 303.846 100.846 303.832 100.829C303.818 100.812 303.801 100.798 303.781 100.789C303.761 100.779 303.74 100.775 303.718 100.775H296.928C296.813 100.775 296.756 100.717 296.756 100.603V97.4356C296.756 97.2993 296.824 97.2312 296.961 97.2312H307.79C307.839 97.2312 307.885 97.2485 307.922 97.2799C307.959 97.3114 307.984 97.355 307.992 97.4029C309.507 106.64 301.079 112.547 292.695 109.595C284.152 106.586 281.963 95.0887 288.868 89.2365C293.602 85.2269 301.087 85.2732 305.473 89.8389C305.546 89.9134 305.544 89.9879 305.468 90.0624L302.69 92.7418C302.61 92.82 302.531 92.8191 302.453 92.7391C297.146 87.3939 288.263 91.7606 289.195 99.2864C289.691 103.285 292.624 106.065 296.753 106.226C300.133 106.36 303.159 104.329 303.862 100.952Z" fill="white"/>
<path d="M90.7512 86.876H86.777C86.7168 86.876 86.668 86.9248 86.668 86.985V109.658C86.668 109.718 86.7168 109.767 86.777 109.767H90.7512C90.8114 109.767 90.8602 109.718 90.8602 109.658V86.985C90.8602 86.9248 90.8114 86.876 90.7512 86.876Z" fill="white"/>
<path d="M121.52 87.127C121.52 87.0894 121.527 87.0522 121.541 87.0175C121.556 86.9827 121.577 86.9512 121.603 86.9246C121.63 86.898 121.661 86.877 121.696 86.8626C121.731 86.8482 121.768 86.8408 121.806 86.8408L129.961 86.8272C131.413 86.8246 132.852 87.1047 134.195 87.6514C135.537 88.1981 136.758 89.0007 137.786 90.0134C138.815 91.0261 139.632 92.2291 140.19 93.5536C140.748 94.8781 141.036 96.2982 141.039 97.7329V98.8232C141.044 101.721 139.883 104.501 137.813 106.554C135.743 108.606 132.932 109.762 129.999 109.767L121.844 109.781C121.768 109.781 121.695 109.751 121.642 109.697C121.588 109.643 121.558 109.571 121.558 109.495L121.52 87.127ZM125.916 91.0439V105.594C125.916 105.616 125.925 105.638 125.941 105.654C125.957 105.67 125.978 105.679 126.001 105.679H129.803C130.707 105.679 131.601 105.501 132.436 105.156C133.271 104.812 134.029 104.307 134.668 103.67C135.307 103.033 135.814 102.277 136.159 101.445C136.505 100.613 136.683 99.7211 136.683 98.8205V97.8174C136.683 96.9168 136.505 96.025 136.159 95.193C135.814 94.3609 135.307 93.6049 134.668 92.9681C134.029 92.3313 133.271 91.8261 132.436 91.4815C131.601 91.1368 130.707 90.9594 129.803 90.9594H126.001C125.978 90.9594 125.957 90.9683 125.941 90.9842C125.925 91 125.916 91.0215 125.916 91.0439Z" fill="white"/>
<path d="M202.777 86.876H198.825C198.752 86.876 198.694 86.9346 198.694 87.0068V109.636C198.694 109.708 198.752 109.767 198.825 109.767H202.777C202.849 109.767 202.908 109.708 202.908 109.636V87.0068C202.908 86.9346 202.849 86.876 202.777 86.876Z" fill="white"/>
<path d="M44.1378 100.368C45.4979 111.157 30.5335 114.155 27.3253 104.508C26.8183 102.982 26.7238 101.423 27.0418 99.831C28.9607 90.2473 42.9139 90.667 44.1378 100.368ZM35.577 106.515C36.1672 106.513 36.7513 106.383 37.2957 106.134C37.8402 105.885 38.3344 105.52 38.7502 105.062C39.166 104.603 39.4952 104.059 39.719 103.461C39.9428 102.863 40.0568 102.223 40.0545 101.576C40.05 100.271 39.5721 99.0201 38.7259 98.0999C37.8798 97.1797 36.7347 96.665 35.5426 96.6692C34.9524 96.6712 34.3683 96.8006 33.8238 97.0499C33.2794 97.2992 32.7851 97.6635 32.3694 98.1221C31.9536 98.5807 31.6244 99.1245 31.4006 99.7225C31.1768 100.321 31.0628 100.961 31.065 101.608C31.0696 102.913 31.5475 104.164 32.3937 105.084C33.2398 106.004 34.3849 106.519 35.577 106.515Z" fill="white"/>
<path d="M63.7632 100.368C65.1234 111.157 50.159 114.155 46.9507 104.508C46.4438 102.982 46.3493 101.423 46.6673 99.831C48.5862 90.2473 62.5394 90.667 63.7632 100.368ZM55.2024 106.515C55.7927 106.513 56.3767 106.383 56.9212 106.134C57.4657 105.885 57.9599 105.52 58.3757 105.062C58.7915 104.603 59.1207 104.059 59.3445 103.461C59.5683 102.863 59.6823 102.223 59.68 101.576C59.6755 100.271 59.1975 99.0201 58.3514 98.0999C57.5052 97.1797 56.3602 96.665 55.1681 96.6692C54.5778 96.6712 53.9938 96.8006 53.4493 97.0499C52.9049 97.2992 52.4106 97.6635 51.9948 98.1221C51.5791 98.5807 51.2499 99.1245 51.0261 99.7225C50.8023 100.321 50.6883 100.961 50.6905 101.608C50.6951 102.913 51.173 104.164 52.0192 105.084C52.8653 106.004 54.0104 106.519 55.2024 106.515Z" fill="white"/>
<path d="M78.6975 107.515C77.46 108.889 76.0026 109.641 74.3254 109.77C69.8933 110.11 66.6333 106.643 66.2244 102.274C65.9137 98.9647 66.9195 96.3653 69.2419 94.4754C71.9567 92.2648 76.3534 92.1858 78.5967 95.1269C78.6133 95.1484 78.6363 95.1643 78.6623 95.1722C78.6884 95.1801 78.7163 95.1796 78.7421 95.1709C78.7679 95.1622 78.7903 95.1457 78.8063 95.1236C78.8222 95.1016 78.8309 95.0751 78.8311 95.0478V93.6195C78.8311 93.4832 78.8992 93.4151 79.0355 93.4151H82.7017C82.7962 93.4151 82.8434 93.4623 82.8434 93.5568C82.8598 97.9399 82.8616 102.318 82.8489 106.692C82.8416 109.182 82.6889 110.895 82.3909 111.833C80.1667 118.841 69.7952 118.819 66.7069 112.539C66.6925 112.51 66.6843 112.478 66.6827 112.446C66.6811 112.413 66.6862 112.381 66.6977 112.35C66.7092 112.32 66.7269 112.292 66.7496 112.269C66.7722 112.245 66.7995 112.227 66.8296 112.215L70.3703 110.765C70.4069 110.75 70.4476 110.749 70.4851 110.761C70.5225 110.774 70.5543 110.799 70.5748 110.833C71.5869 112.47 72.9525 113.283 74.6716 113.272C78.1142 113.248 79.0873 110.5 78.8065 107.551C78.8053 107.539 78.8006 107.527 78.793 107.518C78.7853 107.508 78.7751 107.501 78.7636 107.498C78.752 107.494 78.7396 107.494 78.7279 107.497C78.7162 107.5 78.7056 107.506 78.6975 107.515ZM74.5002 105.977C75.0646 105.987 75.6256 105.876 76.1512 105.651C76.6767 105.426 77.1565 105.091 77.5631 104.665C77.9698 104.239 78.2953 103.73 78.5212 103.168C78.7471 102.606 78.8688 102.002 78.8795 101.389C78.9011 100.153 78.469 98.9587 77.6782 98.0701C76.8875 97.1815 75.8029 96.6712 74.663 96.6513C74.0986 96.6414 73.5376 96.7523 73.0121 96.9775C72.4866 97.2028 72.0068 97.538 71.6001 97.964C71.1935 98.3901 70.8679 98.8986 70.6421 99.4606C70.4162 100.023 70.2944 100.627 70.2838 101.239C70.2622 102.476 70.6943 103.67 71.485 104.559C72.2758 105.447 73.3604 105.958 74.5002 105.977Z" fill="white"/>
<path d="M98.078 102.898C99.0102 107.019 104.238 107.802 106.539 104.318C106.595 104.233 106.671 104.213 106.765 104.258L109.891 105.771C109.909 105.78 109.926 105.792 109.939 105.807C109.952 105.822 109.962 105.84 109.968 105.859C109.974 105.878 109.976 105.897 109.974 105.917C109.972 105.937 109.966 105.956 109.957 105.973C105.754 113.504 94.4255 110.792 93.9594 102.132C93.6078 95.6285 99.6862 91.0601 105.822 93.5488C109.281 94.9525 110.655 98.9458 110.279 102.478C110.264 102.615 110.188 102.683 110.05 102.683H98.2497C98.2233 102.683 98.1973 102.689 98.1736 102.701C98.1498 102.712 98.129 102.729 98.1125 102.749C98.096 102.77 98.0844 102.794 98.0784 102.82C98.0725 102.846 98.0723 102.872 98.078 102.898ZM98.3342 99.2729C98.1979 99.5472 98.2833 99.6844 98.5904 99.6844H106.094C106.128 99.6845 106.16 99.6769 106.19 99.6621C106.219 99.6473 106.245 99.6259 106.265 99.5994C106.285 99.5729 106.298 99.5422 106.304 99.5096C106.31 99.4771 106.308 99.4436 106.299 99.4119C105.825 97.7982 104.674 96.7352 102.976 96.5035C100.941 96.2255 99.3936 97.1486 98.3342 99.2729Z" fill="white"/>
<path d="M147.147 102.884C147.937 107.166 153.296 107.608 155.635 104.334C155.697 104.251 155.774 104.232 155.867 104.277L158.914 105.752C159.01 105.797 159.033 105.867 158.982 105.962C155.12 113.182 144.097 111.051 143.091 102.879C142.475 97.8906 145.762 93.1532 150.944 92.9024C156.712 92.6217 159.86 97.002 159.347 102.47C159.342 102.528 159.315 102.582 159.272 102.622C159.229 102.661 159.174 102.683 159.116 102.682H147.316C147.291 102.682 147.266 102.688 147.243 102.699C147.22 102.709 147.199 102.725 147.183 102.744C147.167 102.763 147.155 102.786 147.149 102.81C147.143 102.834 147.142 102.86 147.147 102.884ZM147.406 99.3134C147.293 99.5606 147.372 99.6841 147.643 99.6841H155.155C155.193 99.684 155.229 99.675 155.262 99.6578C155.295 99.6407 155.324 99.6159 155.345 99.5855C155.367 99.5551 155.381 99.52 155.386 99.4831C155.392 99.4462 155.388 99.4086 155.376 99.3734C153.926 95.2738 149.123 95.5764 147.406 99.3134Z" fill="white"/>
<path d="M183.389 102.819C184.144 107.136 189.538 107.652 191.888 104.332C191.946 104.248 192.021 104.229 192.114 104.274L195.169 105.765C195.268 105.813 195.29 105.884 195.238 105.981C192.94 110.276 187.567 111.517 183.432 109.17C175.451 104.64 179.614 91.436 189.23 92.9815C193.937 93.7393 196.047 98.065 195.589 102.478C195.575 102.614 195.499 102.682 195.363 102.682H183.503C183.486 102.683 183.469 102.687 183.454 102.694C183.438 102.701 183.424 102.712 183.413 102.725C183.402 102.738 183.395 102.753 183.39 102.769C183.386 102.785 183.386 102.802 183.389 102.819ZM183.626 99.3652C183.528 99.5778 183.596 99.6842 183.83 99.6842H191.408C191.445 99.6842 191.481 99.6753 191.514 99.6582C191.547 99.6411 191.575 99.6163 191.596 99.5859C191.618 99.5555 191.632 99.5204 191.637 99.4834C191.642 99.4464 191.638 99.4087 191.626 99.3734C190.157 95.2112 185.357 95.6173 183.626 99.3652Z" fill="white"/>
<path d="M223.179 102.677C222.67 106.68 220.544 109.152 216.801 110.091C215.024 110.536 213.285 110.448 211.584 109.827C204.276 107.156 204.025 96.2661 211.259 93.4995C217.649 91.0572 224.057 95.7646 223.179 102.677ZM214.651 106.515C215.241 106.514 215.826 106.386 216.371 106.137C216.916 105.889 217.412 105.525 217.828 105.068C218.245 104.61 218.576 104.067 218.801 103.469C219.026 102.871 219.141 102.231 219.14 101.584C219.139 100.938 219.021 100.298 218.794 99.7012C218.567 99.1043 218.235 98.5622 217.816 98.1058C217.398 97.6495 216.901 97.2877 216.355 97.0413C215.809 96.7948 215.224 96.6685 214.634 96.6696C214.043 96.6706 213.458 96.7989 212.913 97.0473C212.368 97.2956 211.873 97.6591 211.456 98.1169C211.039 98.5748 210.709 99.118 210.484 99.7157C210.259 100.313 210.144 100.954 210.145 101.6C210.146 102.247 210.263 102.887 210.49 103.483C210.717 104.08 211.05 104.622 211.468 105.079C211.886 105.535 212.383 105.897 212.929 106.143C213.475 106.39 214.06 106.516 214.651 106.515Z" fill="white"/>
<path d="M230.228 95.3912C231.43 93.7939 233.036 92.9217 235.064 92.8835C244.149 92.7064 245.795 106.42 238.16 109.715C235.429 110.895 232.008 110.402 230.247 107.856C230.235 107.837 230.217 107.822 230.195 107.815C230.173 107.807 230.15 107.808 230.128 107.815C230.107 107.823 230.089 107.837 230.076 107.857C230.064 107.876 230.059 107.899 230.062 107.922C230.285 110.702 230.365 113.487 230.302 116.276C230.299 116.358 230.265 116.437 230.206 116.494C230.147 116.552 230.068 116.584 229.985 116.584H226.295C226.158 116.584 226.09 116.516 226.09 116.38V93.5868C226.09 93.4723 226.147 93.4151 226.259 93.4151H229.838C229.975 93.4151 230.043 93.4832 230.043 93.6195V95.3285C230.043 95.3501 230.05 95.371 230.062 95.3884C230.075 95.4058 230.093 95.4189 230.113 95.4258C230.133 95.4327 230.155 95.4331 230.176 95.4269C230.197 95.4207 230.215 95.4082 230.228 95.3912ZM234.434 106.485C235.606 106.485 236.73 105.969 237.558 105.05C238.387 104.132 238.852 102.886 238.852 101.587C238.852 100.288 238.387 99.0419 237.558 98.1233C236.73 97.2048 235.606 96.6887 234.434 96.6887C233.262 96.6887 232.138 97.2048 231.31 98.1233C230.481 99.0419 230.015 100.288 230.015 101.587C230.015 102.886 230.481 104.132 231.31 105.05C232.138 105.969 233.262 106.485 234.434 106.485Z" fill="white"/>
<path d="M249.35 102.819C250.113 107.134 255.502 107.654 257.849 104.334C257.909 104.249 257.986 104.229 258.08 104.274L261.174 105.784C261.285 105.839 261.308 105.918 261.242 106.022C259.516 108.8 257.173 110.23 254.212 110.312C241.767 110.658 242.772 91.7686 254.504 92.9325C259.653 93.4422 262.027 97.6317 261.561 102.473C261.556 102.53 261.529 102.584 261.486 102.623C261.443 102.661 261.387 102.683 261.329 102.683H249.467C249.45 102.682 249.433 102.686 249.417 102.693C249.401 102.7 249.388 102.71 249.376 102.723C249.365 102.736 249.357 102.752 249.352 102.768C249.348 102.785 249.347 102.802 249.35 102.819ZM249.59 99.3653C249.491 99.5779 249.56 99.6842 249.794 99.6842H257.372C257.409 99.6843 257.445 99.6754 257.478 99.6583C257.51 99.6412 257.539 99.6164 257.56 99.586C257.581 99.5556 257.595 99.5204 257.6 99.4835C257.605 99.4465 257.602 99.4088 257.59 99.3735C256.12 95.2113 251.32 95.6174 249.59 99.3653Z" fill="white"/>
<path d="M268.866 95.5438C268.866 95.5662 268.873 95.5881 268.887 95.6062C268.9 95.6243 268.919 95.6376 268.94 95.644C268.961 95.6505 268.984 95.6498 269.004 95.6421C269.025 95.6343 269.042 95.6199 269.054 95.601C270.447 93.4341 273.148 92.1502 275.71 93.2269C275.794 93.2614 275.835 93.3241 275.835 93.415V97.0975C275.835 97.2102 275.782 97.251 275.675 97.2202C275.162 97.0748 274.652 96.9467 274.143 96.8358C271.071 96.1598 269.171 98.4358 269.166 101.301C269.158 104.075 269.154 106.854 269.152 109.636C269.152 109.671 269.138 109.705 269.113 109.73C269.088 109.755 269.054 109.77 269.018 109.77H265.069C264.978 109.77 264.932 109.724 264.932 109.633L264.93 93.6194C264.93 93.5652 264.952 93.5132 264.99 93.4749C265.029 93.4365 265.082 93.415 265.137 93.415H268.754C268.848 93.415 268.895 93.4622 268.893 93.5567L268.866 95.5438Z" fill="white"/>
<path d="M315.136 95.5901C316.68 93.2332 318.871 92.4191 321.707 93.1478C321.836 93.1823 321.901 93.2659 321.901 93.3986V97.0974C321.901 97.2119 321.845 97.2555 321.732 97.2282C321.149 97.0838 320.47 96.7785 319.927 96.7376C316.343 96.4623 315.258 98.8719 315.234 101.917C315.214 104.453 315.213 106.997 315.231 109.549C315.231 109.607 315.208 109.663 315.166 109.705C315.125 109.746 315.069 109.769 315.01 109.769H311.134C311.043 109.769 310.998 109.724 310.998 109.633L310.995 93.6193C310.995 93.5651 311.017 93.5131 311.056 93.4748C311.095 93.4364 311.147 93.4149 311.202 93.4149H314.746C314.882 93.4149 314.95 93.483 314.95 93.6193V95.5355C314.95 95.5572 314.957 95.5783 314.97 95.5956C314.984 95.613 315.002 95.6256 315.023 95.6318C315.043 95.6379 315.066 95.6371 315.086 95.6296C315.106 95.6221 315.124 95.6082 315.136 95.5901Z" fill="white"/>
<path d="M339.902 102.682C338.678 113.934 321.41 112.269 322.691 100.551C323.929 89.2445 341.186 90.8745 339.902 102.682ZM331.313 106.515C331.904 106.514 332.489 106.386 333.034 106.137C333.579 105.889 334.074 105.525 334.491 105.068C334.908 104.61 335.238 104.066 335.463 103.469C335.688 102.871 335.803 102.231 335.802 101.584C335.801 100.938 335.684 100.298 335.457 99.7011C335.23 99.1042 334.897 98.5621 334.479 98.1058C334.061 97.6494 333.564 97.2876 333.018 97.0412C332.472 96.7947 331.887 96.6684 331.296 96.6695C330.706 96.6705 330.121 96.7988 329.576 97.0472C329.031 97.2955 328.535 97.659 328.118 98.1168C327.702 98.5747 327.371 99.118 327.146 99.7156C326.921 100.313 326.806 100.954 326.807 101.6C326.808 102.247 326.926 102.886 327.153 103.483C327.38 104.08 327.712 104.622 328.131 105.079C328.549 105.535 329.046 105.897 329.592 106.143C330.138 106.39 330.723 106.516 331.313 106.515Z" fill="white"/>
<path d="M365.958 95.3889C368.637 91.9108 373.448 92.1916 376.405 95.1954C380.48 99.3331 379.229 108.045 373.23 109.985C370.608 110.833 367.628 110.152 365.974 107.859C365.962 107.842 365.946 107.83 365.926 107.823C365.907 107.817 365.886 107.817 365.866 107.824C365.847 107.831 365.83 107.844 365.819 107.861C365.808 107.878 365.803 107.899 365.805 107.919C366.028 110.701 366.107 113.487 366.042 116.276C366.041 116.359 366.007 116.437 365.948 116.495C365.89 116.552 365.811 116.584 365.729 116.584H362.005C361.891 116.584 361.833 116.527 361.833 116.413V93.5517C361.833 93.5156 361.848 93.4809 361.873 93.4554C361.899 93.4298 361.934 93.4154 361.97 93.4154H365.581C365.718 93.4154 365.786 93.4836 365.786 93.6199V95.3317C365.786 95.3517 365.792 95.3712 365.804 95.3874C365.816 95.4037 365.832 95.4158 365.851 95.4222C365.87 95.4285 365.891 95.4287 365.91 95.4227C365.929 95.4168 365.946 95.4049 365.958 95.3889ZM370.18 106.485C371.352 106.485 372.477 105.969 373.306 105.051C374.135 104.132 374.601 102.886 374.601 101.587C374.601 100.288 374.135 99.0423 373.306 98.1237C372.477 97.2051 371.352 96.6891 370.18 96.6891C369.007 96.6891 367.883 97.2051 367.054 98.1237C366.224 99.0423 365.759 100.288 365.759 101.587C365.759 102.886 366.224 104.132 367.054 105.051C367.883 105.969 369.007 106.485 370.18 106.485Z" fill="white"/>
<path d="M385.343 97.1633C384.757 98.1991 386.344 99.0768 387.235 99.2948C389.74 99.9081 392.427 100.382 393.839 102.31C394.752 103.558 394.951 104.941 394.436 106.458C393.232 110.013 388.461 110.792 385.264 110.072C383.022 109.571 381.424 108.284 380.47 106.213C380.424 106.115 380.451 106.044 380.551 106L383.959 104.509C384.053 104.467 384.127 104.491 384.179 104.58C385.33 106.534 387.059 107.175 389.366 106.504C390.947 106.047 390.713 104.193 389.274 103.686C388.369 103.368 387.08 103.014 385.409 102.623C381.165 101.634 379.164 96.0839 383.735 93.7479C387.006 92.077 392.223 92.6194 394.158 96.1493C394.215 96.2529 394.189 96.3274 394.082 96.3728L390.819 97.7929C390.737 97.8293 390.669 97.812 390.615 97.7412C389.368 96.133 387.772 95.7386 385.826 96.5582C385.704 96.6091 385.543 96.8108 385.343 97.1633Z" fill="white"/>
<path d="M173.737 93.415H178.133C178.158 93.4149 178.181 93.4207 178.202 93.432C178.224 93.4433 178.242 93.4597 178.255 93.4797C178.268 93.4998 178.276 93.5228 178.278 93.5467C178.28 93.5706 178.277 93.5947 178.267 93.6167L171.431 109.682C171.42 109.708 171.401 109.731 171.377 109.746C171.353 109.762 171.326 109.77 171.297 109.77H167.323C167.295 109.77 167.267 109.762 167.243 109.746C167.219 109.731 167.201 109.708 167.19 109.682L160.421 93.6167C160.412 93.5947 160.408 93.5706 160.41 93.5467C160.412 93.5228 160.42 93.4998 160.434 93.4797C160.447 93.4597 160.465 93.4433 160.486 93.432C160.507 93.4207 160.531 93.4149 160.555 93.415H165.017C165.046 93.4153 165.074 93.4243 165.098 93.4408C165.122 93.4573 165.14 93.4807 165.151 93.5077L169.209 103.953C169.22 103.98 169.238 104.004 169.262 104.02C169.286 104.037 169.315 104.046 169.344 104.046C169.374 104.046 169.402 104.037 169.426 104.02C169.45 104.004 169.469 103.98 169.479 103.953L173.603 93.5077C173.614 93.4807 173.632 93.4573 173.656 93.4408C173.68 93.4243 173.708 93.4153 173.737 93.415Z" fill="white"/>
<path d="M353.762 107.793C352.407 109.474 350.725 110.313 348.717 110.309C344.484 110.304 342.775 107.224 342.761 103.386C342.748 100.113 342.747 96.8322 342.756 93.5432C342.756 93.5092 342.769 93.4766 342.793 93.4526C342.817 93.4285 342.85 93.415 342.884 93.415H346.839C346.867 93.415 346.894 93.4262 346.914 93.4462C346.934 93.4661 346.945 93.4931 346.945 93.5213C346.98 96.6651 346.992 99.807 346.981 102.947C346.964 107.842 352.514 107.385 353.536 103.38C353.651 102.93 353.711 102.221 353.716 101.254C353.73 98.6794 353.731 96.099 353.719 93.5132C353.719 93.4871 353.729 93.4622 353.747 93.4438C353.766 93.4254 353.791 93.415 353.817 93.415H357.805C357.843 93.415 357.88 93.4303 357.907 93.4574C357.934 93.4844 357.949 93.5212 357.949 93.5595V109.565C357.949 109.619 357.928 109.671 357.889 109.71C357.851 109.748 357.799 109.77 357.745 109.77H354.133C354.044 109.77 353.999 109.724 353.997 109.633L353.994 107.875C353.994 107.63 353.917 107.603 353.762 107.793Z" fill="white"/>
<path d="M8.96716 138.475C10.877 139.063 12.5306 138.554 13.9281 136.948C14.0116 136.852 14.0998 136.848 14.1924 136.937L15.7107 138.385C15.9197 138.583 15.916 138.778 15.6998 138.971C13.7591 140.682 11.7638 141.489 9.13889 141.059C3.58378 140.148 1.07608 133.778 4.42877 129.275C7.07276 125.723 12.3553 125.464 15.479 128.539C15.5644 128.625 15.5644 128.71 15.479 128.795L13.8763 130.395C13.7963 130.475 13.7173 130.475 13.6391 130.395C12.3707 129.08 10.8643 128.635 9.1198 129.06C4.51599 130.183 4.40969 137.071 8.96716 138.475Z" fill="white"/>
<path d="M81.1073 133.601C82.5193 134.157 83.4161 135.31 83.4379 136.856C83.5087 141.931 76.2555 140.841 73.2653 140.843C73.2241 140.843 73.1846 140.827 73.1555 140.799C73.1263 140.77 73.1099 140.731 73.1099 140.691L73.1045 126.871C73.1045 126.819 73.1254 126.769 73.1626 126.731C73.1999 126.694 73.2505 126.673 73.3035 126.672C75.3042 126.661 78.4524 126.348 80.2296 126.923C83.3125 127.926 83.9721 131.636 81.0937 133.427C81.0782 133.436 81.0657 133.45 81.0574 133.466C81.0492 133.482 81.0456 133.5 81.047 133.518C81.0484 133.536 81.0548 133.553 81.0654 133.568C81.0761 133.583 81.0906 133.594 81.1073 133.601ZM75.7512 129.352L75.7567 132.448C75.7567 132.51 75.7814 132.57 75.8253 132.614C75.8693 132.658 75.9289 132.682 75.9911 132.682L78.5369 132.68C79.014 132.679 79.4713 132.496 79.8082 132.17C80.145 131.844 80.3339 131.403 80.3332 130.943V130.845C80.3329 130.618 80.286 130.392 80.1953 130.182C80.1045 129.972 79.9717 129.781 79.8044 129.62C79.6371 129.459 79.4386 129.332 79.2202 129.245C79.0018 129.159 78.7678 129.114 78.5315 129.114L75.9856 129.117C75.9548 129.117 75.9244 129.123 75.8959 129.135C75.8675 129.147 75.8416 129.164 75.8199 129.186C75.7981 129.208 75.7808 129.233 75.769 129.262C75.7573 129.29 75.7512 129.321 75.7512 129.352ZM75.7539 135.111L75.743 138.126C75.743 138.162 75.7502 138.198 75.7642 138.232C75.7782 138.266 75.7986 138.297 75.8245 138.322C75.8503 138.348 75.8809 138.369 75.9147 138.383C75.9484 138.397 75.9845 138.404 76.0211 138.404L78.8668 138.415C79.1131 138.416 79.3572 138.374 79.585 138.291C79.8129 138.209 80.0201 138.087 80.1947 137.934C80.3694 137.781 80.5081 137.599 80.603 137.399C80.6978 137.198 80.7469 136.983 80.7475 136.766V136.504C80.7487 136.065 80.5524 135.644 80.2018 135.333C79.8511 135.021 79.3749 134.846 78.8777 134.844L76.032 134.833C75.9582 134.833 75.8875 134.862 75.8354 134.915C75.7832 134.967 75.7539 135.037 75.7539 135.111Z" fill="white"/>
<path d="M20.1347 126.737H17.8669C17.7781 126.737 17.7061 126.809 17.7061 126.898V140.685C17.7061 140.774 17.7781 140.846 17.8669 140.846H20.1347C20.2235 140.846 20.2955 140.774 20.2955 140.685V126.898C20.2955 126.809 20.2235 126.737 20.1347 126.737Z" fill="white"/>
<path d="M53.6232 139.693C51.767 142.211 48.2344 141.298 46.6834 138.99C44.9444 136.403 45.7948 131.892 49.0603 130.771C50.8348 130.164 52.5302 130.502 53.6723 132.025C53.6782 132.034 53.687 132.041 53.6972 132.045C53.7074 132.048 53.7185 132.048 53.7288 132.045C53.739 132.041 53.7479 132.035 53.7539 132.026C53.76 132.017 53.7629 132.006 53.7622 131.995L53.6559 126.961C53.6523 126.812 53.725 126.737 53.874 126.737H56.1391C56.23 126.737 56.2754 126.783 56.2754 126.874V140.639C56.2754 140.775 56.2072 140.843 56.0709 140.843H54.0266C53.8903 140.843 53.8222 140.775 53.8222 140.639V139.758C53.8222 139.537 53.7559 139.515 53.6232 139.693ZM51.1466 138.801C51.8724 138.794 52.5651 138.473 53.0725 137.911C53.5799 137.348 53.8603 136.59 53.852 135.802C53.8438 135.014 53.5476 134.261 53.0285 133.709C52.5095 133.158 51.8102 132.852 51.0844 132.86C50.3586 132.867 49.6659 133.187 49.1585 133.75C48.6512 134.312 48.3708 135.071 48.379 135.859C48.3873 136.647 48.6835 137.4 49.2025 137.951C49.7215 138.503 50.4209 138.809 51.1466 138.801Z" fill="white"/>
<path d="M87.8838 132.061C90.2252 129.18 94.6709 130.36 94.739 134.293C94.7826 136.812 94.7926 138.935 94.769 140.663C94.769 140.783 94.7091 140.843 94.5891 140.843H92.3758C92.2522 140.843 92.1895 140.781 92.1877 140.658C92.1877 138.71 92.1859 136.774 92.1823 134.852C92.1795 132.371 89.2603 132.273 88.2436 134.241C87.543 135.599 87.8919 139.066 87.881 140.666C87.881 140.784 87.822 140.843 87.7038 140.843H85.5096C85.3733 140.843 85.3052 140.775 85.3052 140.639V126.942C85.3052 126.805 85.3733 126.737 85.5096 126.737H87.7393C87.8628 126.737 87.9237 126.799 87.9219 126.923L87.8265 132.042C87.827 132.048 87.8294 132.054 87.8333 132.059C87.8373 132.064 87.8427 132.068 87.8488 132.07C87.8549 132.072 87.8615 132.072 87.8677 132.071C87.8739 132.069 87.8795 132.066 87.8838 132.061Z" fill="white"/>
<path d="M111.47 132.012C111.469 132.022 111.472 132.033 111.478 132.042C111.483 132.051 111.492 132.058 111.501 132.062C111.511 132.067 111.521 132.068 111.531 132.065C111.541 132.063 111.55 132.058 111.557 132.05C112.845 130.518 114.457 130.105 116.392 130.812C120.383 132.265 120.549 138.845 116.708 140.72C114.961 141.574 112.901 141.293 111.647 139.69C111.53 139.541 111.472 139.561 111.472 139.75V140.671C111.472 140.786 111.415 140.843 111.301 140.843H109.223C109.087 140.843 109.019 140.775 109.019 140.639V126.909C109.019 126.795 109.075 126.737 109.188 126.737H111.412C111.518 126.737 111.573 126.79 111.579 126.895C111.668 128.605 111.631 130.311 111.47 132.012ZM114.188 138.796C114.548 138.798 114.904 138.723 115.237 138.576C115.571 138.428 115.874 138.211 116.129 137.937C116.385 137.662 116.589 137.336 116.728 136.977C116.868 136.617 116.941 136.232 116.943 135.842C116.945 135.452 116.876 135.066 116.74 134.705C116.604 134.344 116.404 134.016 116.151 133.739C115.899 133.462 115.598 133.242 115.266 133.091C114.935 132.94 114.579 132.861 114.219 132.859C113.859 132.858 113.503 132.932 113.169 133.08C112.836 133.227 112.533 133.444 112.277 133.719C112.022 133.993 111.818 134.319 111.679 134.679C111.539 135.038 111.466 135.424 111.464 135.813C111.462 136.203 111.531 136.59 111.667 136.95C111.802 137.311 112.003 137.64 112.255 137.917C112.508 138.193 112.809 138.414 113.141 138.565C113.472 138.716 113.828 138.794 114.188 138.796Z" fill="white"/>
<path d="M32.8203 135.836C32.8203 137.262 32.2537 138.63 31.2451 139.639C30.2366 140.647 28.8687 141.214 27.4424 141.214C26.0161 141.214 24.6482 140.647 23.6396 139.639C22.6311 138.63 22.0645 137.262 22.0645 135.836C22.0645 134.41 22.6311 133.042 23.6396 132.033C24.6482 131.025 26.0161 130.458 27.4424 130.458C28.8687 130.458 30.2366 131.025 31.2451 132.033C32.2537 133.042 32.8203 134.41 32.8203 135.836ZM27.424 138.818C27.7899 138.82 28.1525 138.745 28.4913 138.596C28.83 138.448 29.1383 138.23 29.3984 137.955C29.6585 137.679 29.8654 137.352 30.0073 136.991C30.1492 136.63 30.2233 136.242 30.2254 135.851C30.2274 135.459 30.1574 135.071 30.0193 134.708C29.8812 134.346 29.6777 134.016 29.4205 133.738C29.1633 133.459 28.8573 133.238 28.5201 133.087C28.1829 132.935 27.8211 132.856 27.4553 132.854C27.0895 132.852 26.7268 132.927 26.388 133.075C26.0493 133.223 25.741 133.442 25.4809 133.717C25.2208 133.993 25.0139 134.32 24.872 134.681C24.7301 135.042 24.656 135.43 24.654 135.821C24.6519 136.213 24.7219 136.601 24.86 136.964C24.9981 137.326 25.2016 137.656 25.4588 137.934C25.7161 138.212 26.022 138.434 26.3592 138.585C26.6964 138.737 27.0582 138.816 27.424 138.818Z" fill="white"/>
<path d="M127.5 139.879C123.215 144.161 117.892 136.88 123.144 134.664C124.502 134.092 125.956 134.117 127.508 134.741C127.604 134.779 127.66 134.747 127.674 134.645C127.808 133.776 127.374 133.154 126.543 132.868C125.231 132.417 124.064 132.71 123.041 133.746C122.966 133.822 122.887 133.827 122.803 133.759L121.432 132.634C121.338 132.556 121.332 132.472 121.416 132.383C123.226 130.469 125.371 129.966 127.852 130.873C129.852 131.601 130.185 133.187 130.204 135.278C130.22 137.071 130.22 138.867 130.204 140.664C130.204 140.784 130.143 140.844 130.021 140.844H127.862C127.748 140.844 127.691 140.786 127.691 140.672V139.961C127.691 139.779 127.627 139.752 127.5 139.879ZM127.538 136.613C126.39 136.207 124.297 135.711 123.692 137.197C122.694 139.653 127.437 140.192 127.674 136.82C127.682 136.717 127.636 136.648 127.538 136.613Z" fill="white"/>
<path d="M135.107 131.979C137.454 129.294 141.725 130.344 141.834 134.151C141.882 135.82 141.887 137.992 141.851 140.669C141.849 140.785 141.79 140.843 141.674 140.843H139.463C139.338 140.843 139.275 140.781 139.275 140.655C139.275 138.874 139.274 137.103 139.272 135.343C139.267 131.562 135.249 132.456 135.083 135.381C135.035 136.204 135.029 137.97 135.064 140.68C135.064 140.789 135.009 140.843 134.9 140.843H132.665C132.529 140.843 132.46 140.775 132.46 140.639V130.998C132.46 130.883 132.517 130.826 132.629 130.826H134.742C134.856 130.826 134.914 130.882 134.914 130.995V131.905C134.914 132.102 134.978 132.126 135.107 131.979Z" fill="white"/>
<path d="M146.507 136.654C147.076 139.238 150.203 139.789 151.669 137.643C151.722 137.567 151.789 137.549 151.871 137.589L153.656 138.458C153.683 138.471 153.707 138.49 153.726 138.513C153.745 138.536 153.758 138.563 153.765 138.593C153.772 138.622 153.773 138.652 153.767 138.682C153.76 138.711 153.748 138.739 153.73 138.764C152.578 140.299 151.137 141.085 149.407 141.121C143.514 141.25 141.938 133.448 146.861 130.987C148.502 130.167 150.62 130.336 152.1 131.45C153.595 132.575 154.209 134.209 153.94 136.351C153.929 136.439 153.88 136.482 153.793 136.482H146.643C146.527 136.482 146.481 136.539 146.507 136.654ZM146.7 134.59L151.498 134.58C151.51 134.58 151.522 134.575 151.53 134.566C151.539 134.557 151.544 134.546 151.544 134.533V134.525C151.543 134.283 151.48 134.044 151.358 133.82C151.236 133.597 151.058 133.394 150.834 133.224C150.609 133.053 150.343 132.918 150.05 132.826C149.757 132.734 149.443 132.687 149.126 132.688H149.061C148.421 132.689 147.808 132.885 147.357 133.232C146.905 133.578 146.653 134.047 146.654 134.536V134.544C146.654 134.556 146.659 134.568 146.667 134.577C146.676 134.586 146.688 134.59 146.7 134.59Z" fill="white"/>
<path d="M158.222 133.345C158.102 134.522 160.37 134.675 161.193 134.931C162.067 135.202 162.704 135.523 163.104 135.894C164.407 137.096 164.192 139.14 162.741 140.159C160.427 141.784 156.704 141.446 155.254 138.69C155.243 138.669 155.236 138.645 155.234 138.621C155.233 138.597 155.236 138.573 155.244 138.551C155.252 138.528 155.264 138.508 155.28 138.491C155.297 138.473 155.316 138.46 155.338 138.45L157.284 137.6C157.399 137.549 157.492 137.575 157.562 137.679C159.541 140.549 162.959 137.766 160.569 137.03C159.37 136.659 157.783 136.431 156.911 135.793C155.008 134.394 155.349 131.854 157.497 130.927C159.59 130.025 162.466 130.428 163.633 132.612C163.685 132.71 163.661 132.782 163.559 132.827L161.706 133.637C161.604 133.682 161.518 133.661 161.447 133.574C160.691 132.638 159.728 132.412 158.557 132.895C158.466 132.932 158.387 132.993 158.328 133.073C158.268 133.152 158.232 133.246 158.222 133.345Z" fill="white"/>
<path d="M187.998 139.873C186.822 141.079 185.436 141.424 183.838 140.906C180.843 139.935 180.745 135.819 183.656 134.661C185.053 134.107 186.509 134.131 188.022 134.735C188.119 134.773 188.174 134.741 188.189 134.639C188.317 133.772 187.881 133.145 187.052 132.867C185.727 132.422 184.554 132.721 183.533 133.764C183.475 133.822 183.413 133.825 183.348 133.772L181.919 132.617C181.843 132.557 181.838 132.489 181.903 132.415C183.344 130.785 185.193 130.187 187.45 130.621C190.168 131.145 190.71 132.813 190.721 135.427C190.728 137.171 190.728 138.916 190.721 140.66C190.719 140.782 190.657 140.843 190.536 140.843H188.374C188.26 140.843 188.202 140.786 188.202 140.671V139.957C188.202 139.761 188.134 139.733 187.998 139.873ZM188.058 136.615C186.91 136.204 184.858 135.732 184.206 137.141C183.094 139.54 187.924 140.292 188.197 136.831C188.206 136.724 188.16 136.652 188.058 136.615Z" fill="white"/>
<path d="M195.657 132.102C195.656 132.124 195.663 132.147 195.676 132.165C195.689 132.184 195.708 132.198 195.73 132.205C195.752 132.212 195.775 132.211 195.796 132.203C195.818 132.195 195.836 132.181 195.848 132.162C196.791 130.741 198.121 130.23 199.836 130.63C199.94 130.655 199.991 130.721 199.991 130.826V133.069C199.991 133.182 199.936 133.227 199.825 133.206C198.288 132.911 196.898 132.658 196.14 134.375C195.518 135.784 195.832 138.987 195.835 140.699C195.835 140.795 195.786 140.843 195.69 140.843H193.381C193.345 140.843 193.311 140.829 193.285 140.803C193.259 140.778 193.245 140.743 193.245 140.707V130.962C193.245 130.871 193.291 130.826 193.381 130.826H195.573C195.671 130.826 195.718 130.875 195.715 130.973L195.657 132.102Z" fill="white"/>
<path d="M169.482 137.22C169.487 137.24 169.499 137.258 169.515 137.271C169.531 137.283 169.551 137.29 169.572 137.291C169.592 137.291 169.613 137.285 169.63 137.272C169.647 137.26 169.66 137.243 169.667 137.223L171.589 130.946C171.622 130.835 171.697 130.776 171.815 130.769C172.219 130.749 174.257 130.591 174.386 131.022C175.232 133.879 175.851 135.943 176.242 137.215C176.315 137.457 176.384 137.456 176.449 137.212L178.104 130.91C178.131 130.809 178.197 130.758 178.303 130.758H180.799C180.923 130.758 180.967 130.818 180.93 130.938L177.853 140.674C177.837 140.723 177.806 140.766 177.765 140.796C177.723 140.827 177.673 140.843 177.621 140.843H175.179C175.077 140.843 175.011 140.795 174.98 140.698L172.998 134.388C172.992 134.371 172.981 134.356 172.966 134.345C172.951 134.334 172.933 134.329 172.915 134.329C172.896 134.329 172.879 134.334 172.864 134.345C172.85 134.356 172.84 134.371 172.835 134.388L170.883 140.671C170.847 140.786 170.769 140.843 170.651 140.843H168.228C168.128 140.843 168.063 140.795 168.032 140.698L164.954 130.943C164.916 130.819 164.962 130.758 165.091 130.758H167.626C167.733 130.758 167.799 130.809 167.825 130.91L169.482 137.22Z" fill="white"/>
<path d="M41.7771 139.641C41.7772 139.626 41.7725 139.611 41.7637 139.599C41.7549 139.586 41.7425 139.577 41.7281 139.572C41.7138 139.567 41.6982 139.566 41.6835 139.57C41.6689 139.575 41.6559 139.583 41.6463 139.595C39.155 142.563 34.8891 141.26 34.8455 137.245C34.8128 134.36 34.801 132.282 34.8101 131.012C34.8119 130.888 34.8746 130.826 34.9982 130.826H37.2115C37.3369 130.826 37.3996 130.889 37.3996 131.014C37.3977 132.96 37.3996 134.895 37.405 136.817C37.4159 139.87 41.5046 139.224 41.6054 136.131C41.6327 135.291 41.6372 133.576 41.619 130.984C41.6172 130.879 41.669 130.826 41.7744 130.826H44.0095C44.1458 130.826 44.214 130.894 44.214 131.031V140.663C44.214 140.782 44.1549 140.841 44.0368 140.841L41.9271 140.843C41.8108 140.843 41.7535 140.785 41.7553 140.669L41.7771 139.641Z" fill="white"/>
<path d="M104.014 139.652C101.529 142.582 97.3118 141.203 97.2654 137.243C97.2309 134.393 97.2191 132.316 97.23 131.012C97.2318 130.888 97.2945 130.826 97.4181 130.826H99.6314C99.7568 130.826 99.8195 130.889 99.8195 131.014C99.8177 132.96 99.8195 134.895 99.8249 136.817C99.8331 139.827 103.854 139.205 104.017 136.291C104.057 135.568 104.063 133.801 104.034 130.99C104.032 130.881 104.085 130.826 104.194 130.826H106.429C106.566 130.826 106.634 130.894 106.634 131.031V140.674C106.634 140.787 106.578 140.843 106.465 140.843H104.377C104.235 140.843 104.167 140.772 104.173 140.631L104.205 139.726C104.212 139.519 104.149 139.494 104.014 139.652Z" fill="white"/>
<path d="M64.9055 137.205C65.9563 137.205 66.8081 136.353 66.8081 135.302C66.8081 134.251 65.9563 133.399 64.9055 133.399C63.8547 133.399 63.0029 134.251 63.0029 135.302C63.0029 136.353 63.8547 137.205 64.9055 137.205Z" fill="white"/>
</svg>
