<svg width="1593" height="119" viewBox="0 0 1593 119" fill="none" xmlns="http://www.w3.org/2000/svg">
<path d="M1716.99 46.8238L1791 75.3717V127.208L66.1299 152L-148.381 100.163H-196.05C-202.95 84.6372 -175.352 46.3731 -9.7644 17.5248C22.8513 -8.31853 42.2953 15.271 47.9403 30.2962C87.2465 36.8071 180.536 49.8289 239.244 49.8289C297.952 49.8289 395.423 59.8456 436.82 64.854L474.454 60.3465H512.087C520.659 58.0927 549.972 52.8339 598.644 49.8289C622.73 59.445 628.751 63.8524 628.751 64.854L653.213 53.5852C660.74 52.3331 681.187 51.9324 702.764 60.3465C729.734 70.8641 731.616 68.6103 776.776 53.5852C789.072 53.5852 784.331 59.3385 779.031 63.293C785.539 59.3385 800.733 53.5852 824.445 53.5852C858.316 53.5852 842.635 56.5902 910.375 60.3465C946.504 69.3616 1004.88 64.1028 1029.55 60.3465L1056.52 64.854H1091.02C1101.47 63.3515 1127.27 59.5952 1146.84 56.5902C1166.41 53.5852 1185.94 60.8473 1193.25 64.854L1180.71 53.5852L1275.42 60.3465L1280.44 53.5852L1341.91 60.3465C1347.13 60.3465 1360.85 61.248 1373.9 64.854C1386.94 68.4601 1385.6 58.844 1383.3 53.5852L1424.07 60.3465L1433.48 53.5852C1440.8 53.5852 1460.45 54.9374 1480.52 60.3465C1500.59 65.7555 1498.5 62.6003 1494.95 60.3465C1502.69 60.0961 1527.82 58.3932 1566.45 53.5852C1588.41 51.3314 1621.65 67.1078 1660.54 64.854C1691.65 63.051 1711.13 52.0826 1716.99 46.8238Z" fill="#202124"/>
<path d="M1791 75.3717L1716.99 46.8238C1711.13 52.0826 1691.65 63.051 1660.54 64.854C1621.65 67.1078 1588.41 51.3314 1566.45 53.5852C1527.82 58.3932 1502.69 60.0961 1494.95 60.3465C1498.5 62.6003 1500.59 65.7555 1480.52 60.3465C1460.45 54.9374 1440.8 53.5852 1433.48 53.5852L1424.07 60.3465L1383.3 53.5852C1385.6 58.844 1386.94 68.4601 1373.9 64.854C1360.85 61.248 1347.13 60.3465 1341.91 60.3465L1280.44 53.5852L1275.42 60.3465L1180.71 53.5852L1193.25 64.854C1185.94 60.8473 1166.41 53.5852 1146.84 56.5902C1127.27 59.5952 1101.47 63.3515 1091.02 64.854H1056.52L1029.55 60.3465C1004.88 64.1028 946.504 69.3616 910.375 60.3465C842.635 56.5902 858.316 53.5852 824.445 53.5852C797.349 53.5852 781.376 61.0977 776.776 64.854C782.63 61.0977 790.826 53.5852 776.776 53.5852C731.616 68.6103 729.734 70.8641 702.764 60.3465C681.187 51.9324 660.74 52.3331 653.213 53.5852L628.751 64.854C628.751 63.8524 622.73 59.445 598.644 49.8289C549.972 52.8339 520.659 58.0927 512.087 60.3465H474.454L436.82 64.854C395.423 59.8456 297.952 49.8289 239.244 49.8289C180.536 49.8289 87.2464 36.8071 47.9403 30.2962C42.2953 15.271 22.8513 -8.31853 -9.76446 17.5248C-175.352 46.3731 -202.95 84.6372 -196.05 100.163H-148.381L66.1298 152L1791 127.208V75.3717Z" stroke="#FFBB01" stroke-width="10"/>
</svg>
