<svg width="1593" height="103" viewBox="0 0 1593 103" fill="none" xmlns="http://www.w3.org/2000/svg">
<path d="M-85.9874 56.1762L-160 27.6283V-24.2085L1564.87 -49L1779.38 2.83682H1827.05C1833.95 18.3628 1806.35 56.6269 1640.76 85.4752C1608.15 111.319 1588.7 87.729 1583.06 72.7038C1543.75 66.1929 1450.46 53.1711 1391.76 53.1711C1333.05 53.1711 1235.58 43.1544 1194.18 38.146L1156.55 42.6535H1118.91C1110.34 44.9073 1081.03 50.1661 1032.36 53.1711C1008.27 43.555 1002.25 39.1476 1002.25 38.146L977.787 49.4148C970.26 50.6669 949.813 51.0676 928.236 42.6535C901.266 32.1359 899.384 34.3897 854.224 49.4148C841.928 49.4148 846.669 43.6615 851.969 39.707C845.461 43.6615 830.267 49.4148 806.555 49.4148C772.684 49.4148 788.365 46.4098 720.625 42.6535C684.496 33.6384 626.123 38.8972 601.452 42.6535L574.481 38.146H539.984C529.53 39.6485 503.73 43.4048 484.161 46.4098C464.591 49.4148 445.064 42.1527 437.746 38.146L450.29 49.4148L355.579 42.6535L350.562 49.4148L289.093 42.6535C283.867 42.6535 270.151 41.752 257.105 38.146C244.059 34.5399 245.397 44.156 247.697 49.4148L206.927 42.6535L197.519 49.4148C190.201 49.4148 170.548 48.0626 150.477 42.6535C130.405 37.2445 132.496 40.3997 136.05 42.6535C128.315 42.9039 103.184 44.6068 64.5467 49.4148C42.5938 51.6686 9.35089 35.8922 -29.5371 38.146C-60.6475 39.949 -80.1333 50.9174 -85.9874 56.1762Z" fill="#202124"/>
<path d="M-160 27.6283L-85.9874 56.1762C-80.1333 50.9174 -60.6475 39.949 -29.5371 38.146C9.35089 35.8922 42.5938 51.6686 64.5467 49.4148C103.184 44.6068 128.315 42.9039 136.05 42.6535C132.496 40.3997 130.405 37.2445 150.477 42.6535C170.548 48.0626 190.201 49.4148 197.519 49.4148L206.927 42.6535L247.697 49.4148C245.397 44.156 244.059 34.5399 257.105 38.146C270.151 41.752 283.867 42.6535 289.093 42.6535L350.562 49.4148L355.579 42.6535L450.29 49.4148L437.746 38.146C445.064 42.1527 464.591 49.4148 484.161 46.4098C503.73 43.4048 529.53 39.6485 539.984 38.146H574.481L601.452 42.6535C626.123 38.8972 684.496 33.6384 720.625 42.6535C788.365 46.4098 772.684 49.4148 806.555 49.4148C833.651 49.4148 849.624 41.9023 854.224 38.146C848.37 41.9023 840.174 49.4148 854.224 49.4148C899.384 34.3897 901.266 32.1359 928.236 42.6535C949.813 51.0676 970.26 50.6669 977.787 49.4148L1002.25 38.146C1002.25 39.1476 1008.27 43.555 1032.36 53.1711C1081.03 50.1661 1110.34 44.9073 1118.91 42.6535H1156.55L1194.18 38.146C1235.58 43.1544 1333.05 53.1711 1391.76 53.1711C1450.46 53.1711 1543.75 66.1929 1583.06 72.7038C1588.7 87.729 1608.15 111.319 1640.76 85.4752C1806.35 56.6269 1833.95 18.3628 1827.05 2.83682H1779.38L1564.87 -49L-160 -24.2085V27.6283Z" stroke="#FF5145" stroke-width="10"/>
</svg>
